<?xml version="1.0" standalone="no"?>
<!DOCTYPE svg PUBLIC "-//W3C//DTD SVG 20010904//EN"
 "http://www.w3.org/TR/2001/REC-SVG-20010904/DTD/svg10.dtd">
<svg version="1.0" xmlns="http://www.w3.org/2000/svg"
 width="1000.000000pt" height="493.000000pt" viewBox="0 0 1000.000000 493.000000"
 preserveAspectRatio="xMidYMid meet">

<g transform="translate(0.000000,493.000000) scale(0.100000,-0.100000)"
fill="#000000" stroke="none">
<path d="M3379 4283 c-13 -16 -12 -17 4 -4 16 13 21 21 13 21 -2 0 -10 -8 -17
-17z"/>
<path d="M3229 4133 c-13 -16 -32 -37 -41 -48 -22 -26 -53 -99 -39 -90 6 3 11
2 11 -4 0 -5 -4 -11 -10 -13 -5 -1 -23 -30 -39 -63 -22 -44 -27 -63 -19 -72
10 -13 9 -14 -11 -17 -5 0 -13 -5 -18 -10 -4 -5 -3 -6 4 -3 6 4 14 1 16 -5 4
-10 6 -10 6 0 1 6 10 12 21 12 12 0 27 14 40 38 11 20 26 45 32 54 10 14 10
20 -1 30 -12 11 -13 10 -8 -5 4 -10 3 -16 -2 -12 -5 3 -16 2 -25 -1 -12 -4
-13 -11 -6 -24 10 -19 4 -30 -16 -30 -7 0 -11 8 -9 18 2 9 4 22 4 27 1 6 17
28 36 48 37 39 45 60 20 51 -11 -5 -14 -2 -8 12 14 39 55 92 75 97 11 3 17 10
14 16 -3 5 2 12 11 14 14 4 14 5 2 6 -8 0 -26 -11 -40 -26z m-99 -277 c0 -3
-4 -8 -10 -11 -5 -3 -10 -1 -10 4 0 6 5 11 10 11 6 0 10 -2 10 -4z"/>
<path d="M3190 4045 c-10 -12 -10 -15 4 -15 9 0 16 7 16 15 0 8 -2 15 -4 15
-2 0 -9 -7 -16 -15z"/>
<path d="M3107 4000 c-10 -16 -17 -32 -17 -35 0 -3 -9 -15 -22 -25 -20 -17
-21 -21 -8 -31 13 -9 13 -10 -2 -5 -12 4 -27 -11 -56 -57 -58 -91 -175 -317
-169 -324 3 -3 0 -12 -8 -20 -18 -18 -19 -43 -2 -43 8 0 9 -3 1 -8 -6 -4 -14
-14 -18 -22 -4 -9 -5 -6 -2 6 8 47 -97 53 -115 7 -5 -14 -8 -31 -6 -37 2 -6 7
4 11 22 7 30 10 32 52 32 24 0 44 -1 44 -2 0 -2 -18 -64 -39 -138 l-38 -135
-42 -3 -42 -3 7 38 c4 21 11 48 15 61 11 29 11 32 0 32 -7 0 -31 -103 -31
-133 0 -4 18 -7 40 -7 22 0 40 -2 40 -4 0 -15 -22 -164 -26 -178 -5 -17 -31
-18 -352 -20 l-347 -2 385 -6 c212 -4 530 -5 707 -2 252 4 326 2 338 -8 8 -7
15 -8 15 -2 0 19 -33 22 -266 22 -180 0 -234 3 -235 13 -5 48 5 100 24 127 25
35 21 63 -15 117 l-32 47 -11 -44 c-11 -44 -12 -45 -54 -48 -51 -4 -51 -22 0
161 l32 117 39 0 c42 0 43 -2 27 -65 -12 -46 -4 -65 56 -133 11 -13 28 -37 38
-55 9 -17 17 -26 17 -19 0 8 -14 34 -32 60 l-31 46 20 38 c23 42 17 50 -13 17
l-19 -21 -18 23 c-18 22 -17 23 25 66 33 33 49 43 75 43 18 0 33 5 33 10 0 6
-4 10 -10 10 -5 0 -10 8 -10 19 0 10 -9 21 -20 24 -14 4 -18 11 -14 24 4 13 0
11 -15 -7 -18 -23 -18 -26 -3 -31 9 -4 20 -5 24 -3 4 3 9 0 12 -5 4 -5 -9 -15
-28 -22 -19 -7 -40 -24 -47 -38 l-12 -26 -6 30 c-4 17 -11 29 -16 28 -19 -3
-34 18 -26 35 5 10 25 52 45 94 20 42 41 80 46 83 6 3 10 11 10 16 0 6 -4 7
-10 4 -16 -10 -12 4 11 35 12 16 22 37 23 47 2 18 9 35 56 138 44 95 53 137
17 75z m-55 -132 c-7 -7 -12 -8 -12 -2 0 6 3 14 7 17 3 4 9 5 12 2 2 -3 -1
-11 -7 -17z m-42 -36 c0 -5 -7 -17 -15 -28 -14 -18 -14 -17 -4 9 12 27 19 34
19 19z m-67 -217 c-9 -19 -21 -35 -25 -35 -9 0 6 34 25 58 17 22 17 13 0 -23z
m-129 -225 c-9 -16 -13 -34 -10 -39 4 -5 1 -22 -5 -38 -9 -24 -12 -25 -20 -12
-10 19 5 74 29 102 21 24 23 21 6 -13z m-24 -147 c0 -21 -3 -22 -20 -13 -19
10 -27 40 -13 53 11 12 33 -14 33 -40z m34 -162 c7 -41 11 -82 9 -92 -5 -16
-8 -15 -29 10 -28 33 -43 91 -25 91 7 0 9 -4 6 -10 -3 -5 0 -10 8 -10 13 0 15
55 2 90 -4 10 -3 12 4 5 6 -6 17 -44 25 -84z m98 52 c2 -17 0 -29 -4 -27 -7 5
-10 -12 -12 -83 -1 -12 -6 -27 -12 -33 -8 -8 -9 2 -3 37 9 53 10 135 2 116 -7
-19 -19 -16 -19 5 0 11 8 17 22 17 18 0 23 -7 26 -32z m-147 -23 c3 -5 1 -10
-4 -10 -6 0 -11 5 -11 10 0 6 2 10 4 10 3 0 8 -4 11 -10z m111 -26 c-4 -9 -9
-15 -11 -12 -3 3 -3 13 1 22 4 9 9 15 11 12 3 -3 3 -13 -1 -22z m-18 -59 c1
-19 -2 -35 -6 -35 -4 0 -9 16 -10 35 -2 19 1 35 6 35 5 0 9 -16 10 -35z m-58
-46 c0 -18 -18 -9 -23 12 -4 16 -3 18 9 8 8 -6 14 -15 14 -20z"/>
<path d="M3215 3980 c-3 -5 -1 -10 4 -10 6 0 11 5 11 10 0 6 -2 10 -4 10 -3 0
-8 -4 -11 -10z"/>
<path d="M3121 3794 c0 -11 3 -14 6 -6 3 7 2 16 -1 19 -3 4 -6 -2 -5 -13z"/>
<path d="M3070 3710 c0 -5 5 -10 10 -10 6 0 10 5 10 10 0 6 -4 10 -10 10 -5 0
-10 -4 -10 -10z"/>
<path d="M6565 3684 c-30 -27 -32 -31 -9 -16 28 19 62 53 53 52 -2 -1 -22 -17
-44 -36z"/>
<path d="M3020 3679 c0 -5 5 -7 10 -4 6 3 10 8 10 11 0 2 -4 4 -10 4 -5 0 -10
-5 -10 -11z"/>
<path d="M3033 3653 c4 -3 2 -12 -4 -20 -6 -7 -9 -13 -5 -13 3 0 1 -12 -4 -26
-13 -34 5 -22 24 17 16 32 14 49 -6 49 -6 0 -8 -3 -5 -7z"/>
<path d="M6438 3589 c-38 -22 -68 -43 -68 -46 0 -3 10 1 23 9 12 8 43 27 70
42 40 24 56 36 45 36 -2 0 -33 -18 -70 -41z"/>
<path d="M6581 3591 c-8 -5 -9 -11 -3 -15 5 -3 12 1 16 9 6 17 6 18 -13 6z"/>
<path d="M6513 3554 c-3 -9 -12 -13 -22 -9 -11 4 -13 3 -5 -5 8 -8 18 -7 38 3
21 12 24 16 11 21 -9 3 -18 -1 -22 -10z"/>
<path d="M3337 3539 c4 -13 9 -17 15 -11 11 11 3 32 -12 32 -4 0 -6 -9 -3 -21z"/>
<path d="M5522 3544 c-5 -11 -12 -35 -15 -54 -5 -26 -2 -23 9 13 23 73 28 50
9 -50 -9 -48 -18 -99 -21 -113 -4 -24 -4 -24 5 -2 18 40 43 204 32 215 -6 6
-13 2 -19 -9z"/>
<path d="M3045 3540 c-3 -5 -1 -10 4 -10 6 0 11 5 11 10 0 6 -2 10 -4 10 -3 0
-8 -4 -11 -10z"/>
<path d="M6272 3491 c-79 -48 -94 -63 -24 -25 50 28 102 64 92 63 -3 0 -33
-17 -68 -38z"/>
<path d="M6424 3516 c-10 -7 -40 -21 -66 -31 -65 -24 -74 -37 -52 -75 10 -16
22 -30 26 -30 12 0 10 5 -12 30 -19 22 -26 40 -15 40 10 0 43 -39 38 -44 -13
-12 6 -5 53 21 27 15 51 29 54 32 12 14 39 10 43 -6 4 -14 5 -13 6 5 0 12 -3
22 -8 22 -5 0 -12 10 -14 23 l-4 22 -2 -22 c0 -13 -7 -23 -14 -23 -7 0 -22 -8
-33 -17 -10 -10 -26 -19 -34 -20 -8 -1 -26 -5 -39 -9 -48 -14 -16 21 48 52 35
17 59 34 54 37 -6 4 -18 0 -29 -7z"/>
<path d="M6533 3517 c-13 -5 -23 -17 -23 -25 0 -12 4 -11 21 4 12 10 23 18 26
16 3 -2 7 -1 9 1 11 11 -13 14 -33 4z"/>
<path d="M3245 3509 c-4 -6 -5 -12 -2 -15 2 -3 7 2 10 11 7 17 1 20 -8 4z"/>
<path d="M6730 3510 c-9 -6 -10 -10 -3 -10 6 0 15 5 18 10 8 12 4 12 -15 0z"/>
<path d="M6876 3511 c-14 -5 -16 -10 -8 -15 7 -4 22 0 34 8 24 17 9 21 -26 7z"/>
<path d="M2945 3500 c-3 -5 -1 -10 4 -10 6 0 11 5 11 10 0 6 -2 10 -4 10 -3 0
-8 -4 -11 -10z"/>
<path d="M6555 3479 c-11 -17 1 -21 15 -4 8 9 8 15 2 15 -6 0 -14 -5 -17 -11z"/>
<path d="M6680 3487 c0 -11 39 -87 46 -87 3 0 2 5 -1 11 -4 6 1 17 11 25 18
15 18 15 -1 5 -17 -8 -23 -5 -37 22 -9 18 -17 28 -18 24z"/>
<path d="M6745 3480 c-3 -6 1 -7 9 -4 18 7 21 14 7 14 -6 0 -13 -4 -16 -10z"/>
<path d="M6823 3475 c0 -8 4 -12 9 -9 5 3 6 10 3 15 -9 13 -12 11 -12 -6z"/>
<path d="M2052 3472 c-25 -3 -35 -10 -43 -29 -5 -14 -8 -31 -6 -37 2 -6 7 4
11 22 7 30 10 32 51 32 25 0 45 -5 48 -12 4 -8 6 -7 6 3 1 19 -20 26 -67 21z"/>
<path d="M2525 3470 c-40 -4 -50 -9 -52 -25 -2 -17 -1 -17 3 -2 5 16 14 18 65
15 32 -1 59 0 59 3 0 12 -24 15 -75 9z"/>
<path d="M3220 3470 c0 -5 17 -10 38 -9 30 0 33 2 17 9 -28 12 -55 12 -55 0z"/>
<path d="M3307 3473 c-3 -5 1 -14 9 -21 12 -10 14 -10 14 2 0 17 -16 30 -23
19z"/>
<path d="M3473 3474 c-27 -12 -11 -19 42 -19 29 0 50 4 46 8 -10 10 -72 18
-88 11z"/>
<path d="M7349 3463 c-13 -16 -12 -17 4 -4 16 13 21 21 13 21 -2 0 -10 -8 -17
-17z"/>
<path d="M1810 3453 c0 -14 2 -15 9 -4 6 9 23 12 54 10 25 -2 43 -1 40 4 -2 4
-26 7 -54 7 -40 0 -49 -3 -49 -17z"/>
<path d="M2151 3465 c8 -7 298 -11 293 -3 -2 3 -70 7 -151 7 -80 1 -144 -1
-142 -4z"/>
<path d="M3091 3461 c-1 -8 -13 -29 -28 -45 l-28 -31 34 31 c18 18 31 38 28
45 -4 11 -6 11 -6 0z"/>
<path d="M3130 3334 c-40 -74 -70 -137 -68 -139 2 -2 36 59 76 136 40 76 71
139 68 139 -2 0 -37 -61 -76 -136z"/>
<path d="M6515 3460 c-3 -5 -2 -10 4 -10 5 0 13 5 16 10 3 6 2 10 -4 10 -5 0
-13 -4 -16 -10z"/>
<path d="M7010 3430 c-36 -22 -61 -40 -56 -40 10 0 126 70 126 76 0 6 -1 6
-70 -36z"/>
<path d="M2141 3434 c0 -11 3 -14 6 -6 3 7 2 16 -1 19 -3 4 -6 -2 -5 -13z"/>
<path d="M5485 3420 c-4 -17 -5 -34 -2 -36 2 -3 7 10 11 27 8 42 0 50 -9 9z"/>
<path d="M6865 3440 c-3 -5 -2 -10 4 -10 5 0 13 5 16 10 3 6 2 10 -4 10 -5 0
-13 -4 -16 -10z"/>
<path d="M6968 3434 c-38 -20 -36 -28 2 -9 17 9 30 18 30 20 0 7 -1 6 -32 -11z"/>
<path d="M1901 3424 c0 -11 3 -14 6 -6 3 7 2 16 -1 19 -3 4 -6 -2 -5 -13z"/>
<path d="M2320 3435 c0 -5 5 -17 10 -25 5 -8 10 -10 10 -5 0 6 -5 17 -10 25
-5 8 -10 11 -10 5z"/>
<path d="M2426 3409 c-8 -42 0 -50 9 -9 4 17 5 34 2 36 -2 3 -7 -10 -11 -27z"/>
<path d="M2601 3424 c0 -11 3 -14 6 -6 3 7 2 16 -1 19 -3 4 -6 -2 -5 -13z"/>
<path d="M3446 3409 c-8 -42 0 -50 9 -9 4 17 5 34 2 36 -2 3 -7 -10 -11 -27z"/>
<path d="M3526 3334 c-15 -59 -24 -109 -21 -112 3 -3 5 -2 5 2 0 4 12 52 26
107 14 56 24 102 22 105 -3 2 -17 -44 -32 -102z"/>
<path d="M5744 3405 c-1 -19 3 -35 7 -35 5 0 9 16 9 35 0 46 -15 46 -16 0z"/>
<path d="M5900 3349 c-96 -49 -182 -86 -190 -84 -8 2 -26 -2 -39 -9 -23 -13
-26 -12 -44 23 -10 20 -23 40 -27 45 -14 14 -102 -17 -111 -39 -4 -11 -24
-101 -44 -200 -46 -236 -53 -269 -66 -340 -5 -33 -14 -73 -20 -90 -5 -16 -15
-66 -24 -110 -8 -44 -27 -143 -44 -220 -16 -77 -28 -141 -27 -142 2 -2 28 11
60 28 54 29 76 33 62 10 -11 -17 -99 -62 -113 -57 -8 3 -15 -5 -19 -22 -3 -15
-8 -35 -11 -45 -3 -13 7 -22 41 -38 46 -20 66 -19 66 4 0 7 -4 6 -10 -3 -7
-11 -12 -12 -20 -4 -9 9 -4 14 17 22 26 8 32 19 47 78 10 38 24 87 31 109 7
22 20 67 29 100 10 33 30 103 46 155 15 52 38 129 50 170 11 41 28 96 36 123
14 46 14 49 -12 92 l-26 45 89 0 c775 4 714 10 803 -81 26 -27 52 -49 57 -49
4 0 16 -12 26 -25 15 -20 16 -29 6 -47 -21 -41 -106 -142 -168 -202 -34 -32
-60 -60 -58 -62 2 -2 12 5 23 15 11 10 41 28 66 39 26 11 54 31 62 45 20 30
105 77 140 77 41 0 89 24 118 59 15 17 33 31 40 31 7 0 28 9 46 20 18 11 53
21 78 22 49 1 64 14 134 111 31 43 37 47 76 47 36 0 43 -3 48 -25 6 -24 7 -24
26 -5 10 10 38 24 62 31 27 7 56 25 78 49 19 20 53 43 75 51 27 9 34 14 22 17
-18 4 -18 4 0 18 10 7 23 13 28 14 6 0 3 -5 -5 -10 -11 -7 -3 -10 30 -10 50 0
102 26 120 61 7 13 8 19 2 15 -6 -3 -13 -2 -17 4 -3 5 -16 10 -29 10 -35 0
-39 13 -9 26 17 8 22 13 12 13 -9 1 -27 -8 -40 -20 -13 -11 -19 -18 -12 -15 6
4 14 2 18 -4 4 -6 -4 -10 -19 -10 -13 0 -32 -3 -42 -7 -11 -4 -15 -3 -10 5 8
13 -42 0 -71 -18 -16 -10 -15 -11 7 -5 14 3 33 8 42 10 10 2 20 -1 24 -6 4 -6
10 -6 19 1 7 6 17 10 21 9 5 -1 21 1 36 5 46 13 54 1 17 -27 -30 -23 -39 -25
-73 -17 -21 5 -42 14 -46 20 -6 9 -11 7 -19 -6 -6 -11 -11 -15 -11 -11 0 4 -9
3 -20 -3 -16 -9 -20 -8 -20 5 0 14 -3 14 -30 0 -17 -9 -30 -11 -30 -5 0 5 27
24 61 41 34 16 58 33 55 36 -3 3 -17 -2 -31 -11 -15 -10 -34 -15 -43 -11 -14
5 -14 7 -2 15 22 14 3 12 -23 -2 -12 -6 -51 -12 -87 -13 -52 -1 -80 -8 -142
-37 -43 -20 -78 -33 -78 -28 0 4 8 11 17 14 15 6 15 9 3 17 -12 9 -12 10 3 5
15 -5 193 71 185 79 -3 3 -214 -64 -239 -76 -9 -4 -32 -4 -52 0 -19 5 -41 5
-48 0 -8 -5 -18 -9 -24 -8 -22 0 83 47 132 59 29 6 51 15 48 19 -5 9 49 70 82
92 l25 16 -27 7 c-27 7 -27 7 -9 27 14 15 26 19 49 15 22 -4 26 -3 15 4 -24
16 -45 12 -68 -13 -26 -27 -28 -37 -7 -37 8 0 15 -4 15 -10 0 -5 -4 -10 -10
-10 -5 0 -24 -15 -41 -34 -18 -21 -37 -32 -45 -29 -13 5 -13 8 1 23 17 19 19
30 6 30 -5 0 -11 -9 -14 -20 -3 -14 -10 -18 -22 -14 -9 4 -14 13 -11 20 7 19
-4 45 -16 38 -6 -4 -5 -10 3 -15 11 -6 10 -12 -4 -27 -22 -24 -22 -27 8 -46
14 -9 25 -12 25 -7 0 5 -9 13 -20 16 -20 6 -28 25 -11 25 15 0 61 -46 54 -53
-11 -12 -34 -8 -49 8 -13 13 -19 12 -50 -2 -28 -14 -39 -15 -54 -5 -24 15 -33
15 -25 2 3 -5 1 -10 -5 -10 -6 0 -8 -5 -4 -12 4 -7 3 -8 -5 -4 -6 4 -9 12 -6
17 8 11 8 11 -40 -6 -22 -8 -34 -14 -26 -15 8 0 12 -3 8 -6 -3 -3 -13 -2 -22
3 -21 12 -6 25 47 42 33 11 36 15 28 31 -6 10 -14 21 -19 25 -14 8 -141 -57
-134 -68 3 -6 1 -7 -5 -3 -14 9 -63 -14 -55 -27 3 -6 1 -7 -5 -3 -6 4 -19 3
-29 -3 -10 -5 -30 -14 -46 -20 -23 -9 -26 -15 -21 -36 7 -30 -12 -35 -21 -5
-3 11 -11 20 -16 20 -6 0 -7 -5 -3 -12 4 -7 3 -8 -4 -4 -7 4 -79 -27 -161 -69
-83 -42 -154 -74 -159 -71 -5 3 -24 1 -41 -4 -26 -7 -36 -5 -50 9 -10 10 -25
21 -32 23 -10 3 -7 8 9 17 28 15 54 8 46 -13 -11 -29 16 -25 101 14 48 22 91
37 96 34 12 -7 38 8 36 21 -1 6 20 22 47 36 27 15 53 34 58 43 5 9 16 16 23
16 8 0 15 2 15 5 0 13 -41 85 -48 84 -20 -3 -28 3 -29 24 -2 21 -1 21 12 -3 9
-15 14 -19 15 -10 0 8 -10 32 -23 53 -21 35 -24 36 -42 23 -19 -15 -19 -15 3
-9 16 4 22 1 22 -12 0 -12 -4 -15 -12 -8 -14 10 -20 10 -61 -2 -22 -6 -25 -10
-15 -17 9 -6 5 -7 -12 -3 -17 3 -41 -4 -74 -24 -26 -16 -44 -31 -40 -33 5 -3
3 -3 -4 -1 -17 4 -292 -127 -292 -138 0 -5 -7 -6 -15 -3 -8 4 -15 13 -15 21 0
12 3 13 14 4 8 -7 16 -8 18 -3 1 6 84 51 183 101 99 51 170 90 158 87 -13 -2
-23 0 -23 6 0 6 12 8 28 5 39 -8 155 49 143 71 -5 9 -16 17 -26 18 -13 2 -16
-3 -13 -21 3 -14 0 -26 -7 -29 -16 -6 -27 31 -11 38 6 2 2 5 -9 6 -19 1 -19 1
-2 11 10 6 25 8 32 5 17 -6 30 10 16 19 -6 3 -52 -15 -103 -41 -80 -40 -95
-45 -112 -34 -15 10 -21 10 -24 1 -3 -8 -9 -6 -18 6 -7 10 -14 13 -14 7 0 -5
7 -19 15 -30 16 -21 19 -34 7 -34 -4 0 -16 14 -26 31 -15 25 -16 33 -5 39 7 5
17 6 21 4 4 -3 8 -1 8 5 0 6 13 17 29 25 28 15 29 14 33 -9 3 -13 0 -29 -6
-35 -6 -7 17 5 52 25 34 21 62 39 62 42 0 3 -20 -7 -44 -21 -53 -31 -56 -31
-56 -7 0 11 -3 22 -7 24 -5 2 -87 -35 -183 -84z m314 35 c11 -29 6 -39 -10
-22 -15 15 -19 15 -51 -3 -20 -11 -40 -18 -46 -16 -9 3 78 55 94 56 4 1 10 -6
13 -15z m-234 -35 c0 -6 -4 -7 -10 -4 -5 3 -10 11 -10 16 0 6 5 7 10 4 6 -3
10 -11 10 -16z m220 -9 c0 -5 -4 -10 -9 -10 -6 0 -13 5 -16 10 -3 6 1 10 9 10
9 0 16 -4 16 -10z m76 -65 c3 -14 9 -23 13 -21 3 2 7 -7 7 -20 2 -34 -15 -30
-28 7 -8 24 -13 28 -20 17 -7 -10 -8 -8 -4 5 3 10 6 23 6 28 0 20 20 8 26 -16z
m-206 11 c0 -6 -70 -46 -182 -105 l-98 -50 -16 25 c-15 23 -15 26 1 44 21 23
84 48 65 26 -8 -11 3 -9 41 5 29 11 61 25 71 30 12 6 18 6 18 0 0 -6 19 -2 43
9 43 19 57 23 57 16z m-298 -29 c-12 -13 -19 -27 -15 -31 5 -4 4 -7 -2 -6 -29
6 -34 0 -24 -26 5 -15 7 -29 5 -32 -3 -3 -8 2 -12 11 -5 14 -25 7 -125 -43
-65 -33 -124 -60 -131 -59 -7 0 44 29 115 65 70 35 127 66 127 68 0 2 -16 3
-36 2 -21 0 -39 4 -41 10 -4 13 70 46 75 34 2 -5 18 0 35 11 43 26 55 24 29
-4z m984 1 c4 -6 3 -8 -3 -5 -5 3 -20 0 -34 -7 -64 -33 -78 -30 -17 4 40 23
45 23 54 8z m-856 -2 c0 -3 -4 -8 -10 -11 -5 -3 -10 -1 -10 4 0 6 5 11 10 11
6 0 10 -2 10 -4z m840 -20 c0 -2 -7 -7 -16 -10 -8 -3 -12 -2 -9 4 6 10 25 14
25 6z m-365 -26 c3 -5 1 -10 -4 -10 -6 0 -11 5 -11 10 0 6 2 10 4 10 3 0 8 -4
11 -10z m515 -15 c-7 -9 -15 -13 -19 -10 -3 3 1 10 9 15 21 14 24 12 10 -5z
m-233 -1 c-3 -3 -12 -4 -19 -1 -8 3 -5 6 6 6 11 1 17 -2 13 -5z m3 -35 c0 -18
-2 -19 -15 -9 -13 11 -15 10 -9 -6 4 -15 4 -16 -4 -5 -6 8 -8 20 -5 28 8 21
33 15 33 -8z m-68 -40 c-9 -14 -7 -18 11 -23 11 -3 18 -8 14 -12 -4 -4 -18 -1
-32 6 -21 11 -23 16 -12 34 6 12 10 28 9 36 -2 10 2 8 9 -4 9 -14 9 -24 1 -37z
m692 36 c-4 -8 -13 -15 -21 -15 -13 0 -13 3 -3 15 7 8 16 15 21 15 5 0 6 -7 3
-15z m-43 -16 c6 -13 7 -19 1 -15 -6 3 -12 0 -15 -6 -2 -8 -8 -9 -13 -4 -5 5
-4 11 3 13 7 2 9 11 6 19 -8 22 5 17 18 -7z m-1461 -74 c22 -47 40 -87 40 -89
0 -2 -11 -3 -23 -3 -20 0 -23 4 -21 25 1 14 -11 51 -27 83 -32 64 -33 69 -19
69 5 0 27 -38 50 -85z m1765 66 c-3 -6 -11 -11 -17 -11 -6 0 -6 6 2 15 14 17
26 13 15 -4z m-1065 -19 c0 -15 -2 -15 -10 -2 -13 20 -13 33 0 25 6 -3 10 -14
10 -23z m614 12 c-18 -14 -18 -15 6 -9 24 6 24 5 6 -9 -22 -18 -40 -21 -31 -6
9 14 -28 12 -44 -2 -11 -11 -13 -10 -7 0 7 12 60 39 80 41 6 1 1 -6 -10 -15z
m-1404 -56 c8 -22 20 -39 25 -39 15 3 5 43 -13 58 -16 12 -16 13 1 7 13 -5 16
-2 11 12 -6 15 -4 16 6 7 15 -14 20 -74 7 -91 -5 -7 -7 -15 -4 -18 3 -4 -1
-13 -9 -21 -8 -9 -16 -14 -18 -12 -6 7 -66 128 -66 134 0 14 18 3 28 -17 10
-21 11 -20 5 7 -8 40 8 24 27 -27z m1240 42 c0 -5 -4 -10 -10 -10 -5 0 -10 5
-10 10 0 6 5 10 10 10 6 0 10 -4 10 -10z m-407 -7 c-7 -2 -19 -2 -25 0 -7 3
-2 5 12 5 14 0 19 -2 13 -5z m7 -23 c0 -5 -9 -11 -20 -11 -41 -3 -82 -18 -75
-29 3 -4 -5 -6 -17 -2 -14 3 -19 1 -14 -6 5 -8 2 -10 -8 -6 -11 4 -16 0 -16
-10 0 -9 -5 -16 -11 -16 -5 0 -7 4 -4 10 3 6 -1 7 -9 4 -9 -3 -13 -11 -9 -17
3 -6 1 -7 -6 -3 -6 4 -25 0 -43 -8 -17 -9 -41 -16 -52 -16 -13 1 3 13 43 34
43 22 60 35 50 39 -8 4 -5 5 7 2 12 -3 45 6 75 20 55 25 109 33 109 15z m697
-12 c1 -13 -5 -18 -26 -18 -36 0 -45 10 -23 26 24 17 48 14 49 -8z m-707 -23
c-65 -34 -93 -44 -74 -26 16 16 108 60 124 60 8 0 -14 -15 -50 -34z m530 25
c0 -5 -6 -10 -14 -10 -8 0 -18 5 -21 10 -3 6 3 10 14 10 12 0 21 -4 21 -10z
m-1220 -26 c0 -8 -4 -12 -10 -9 -5 3 -10 10 -10 16 0 5 5 9 10 9 6 0 10 -7 10
-16z m721 -14 c-30 -17 -59 -29 -65 -27 -11 4 91 56 109 56 6 1 -14 -13 -44
-29z m559 22 c0 -4 -7 -17 -15 -29 -12 -17 -12 -23 -2 -27 6 -3 2 -3 -10 0
-13 3 -23 1 -23 -5 0 -12 -13 -14 -125 -14 -60 0 -82 -3 -65 -8 17 -6 8 -7
-25 -3 -100 10 -135 16 -135 25 0 5 -17 9 -37 8 -21 0 -32 -3 -25 -6 16 -6 5
-23 -16 -23 -10 0 -23 -9 -29 -19 -7 -11 -20 -22 -30 -24 -10 -2 0 -3 22 0 47
5 55 10 35 24 -13 9 -12 10 2 5 10 -3 20 -1 23 4 8 14 45 13 45 -1 0 -16 -26
-39 -44 -39 -9 0 -16 -9 -16 -21 0 -12 -4 -17 -11 -14 -12 8 -98 -13 -113 -26
-13 -12 -56 -11 -56 0 0 5 10 16 23 25 l22 17 -23 -11 c-13 -6 -27 -10 -32 -8
-6 2 16 16 48 32 31 17 68 39 82 49 30 24 26 22 -74 -26 -71 -35 -106 -41
-106 -20 0 5 48 33 108 63 l107 55 127 1 c70 1 126 -2 123 -6 -3 -4 12 -10 33
-14 56 -9 120 -7 127 4 3 6 14 10 24 10 10 0 24 7 31 15 13 16 30 20 30 7z
m180 -20 c0 -5 -18 -16 -40 -25 -22 -8 -40 -21 -40 -29 0 -9 3 -10 8 -2 10 15
52 28 52 16 0 -17 -53 -29 -87 -20 -37 10 -41 23 -15 49 18 19 122 27 122 11z
m-1623 -32 c6 -17 7 -30 2 -30 -8 0 -29 41 -29 56 0 16 18 -1 27 -26z m-177
12 c0 -15 -11 -21 -27 -15 -12 5 -12 7 -1 14 17 11 28 11 28 1z m265 -2 c3 -5
1 -10 -4 -10 -6 0 -11 5 -11 10 0 6 2 10 4 10 3 0 8 -4 11 -10z m95 -31 c0 -6
-4 -7 -10 -4 -5 3 -10 11 -10 16 0 6 5 7 10 4 6 -3 10 -11 10 -16z m340 1 c0
-5 -5 -10 -11 -10 -5 0 -7 5 -4 10 3 6 8 10 11 10 2 0 4 -4 4 -10z m507 4 c-3
-3 -12 -4 -19 -1 -8 3 -5 6 6 6 11 1 17 -2 13 -5z m-252 -23 c-3 -6 -11 -8
-17 -5 -6 4 -5 9 3 15 16 10 23 4 14 -10z m335 -11 c-20 -13 -33 -13 -25 0 3
6 14 10 23 10 15 0 15 -2 2 -10z m70 -4 c0 -3 -4 -8 -10 -11 -5 -3 -10 -1 -10
4 0 6 5 11 10 11 6 0 10 -2 10 -4z m-1362 -53 c10 -31 9 -33 -14 -39 -15 -4
-30 -1 -37 6 -9 9 -6 11 13 8 14 -1 24 2 23 7 -1 6 -5 24 -9 40 -9 39 9 22 24
-22z m1406 28 c3 -4 3 -11 0 -14 -8 -7 -44 4 -44 14 0 12 37 12 44 0z m-189
-11 c-3 -5 -11 -10 -16 -10 -6 0 -7 5 -4 10 3 6 11 10 16 10 6 0 7 -4 4 -10z
m-1250 -19 c-8 -13 -35 -15 -35 -2 0 5 8 11 18 13 21 5 26 2 17 -11z m1360
-21 c-3 -5 -17 -10 -31 -10 -13 0 -24 5 -24 10 0 6 14 10 31 10 17 0 28 -4 24
-10z m-1385 -31 c0 -6 -4 -7 -10 -4 -5 3 -10 11 -10 16 0 6 5 7 10 4 6 -3 10
-11 10 -16z m1170 1 c0 -5 -5 -10 -11 -10 -5 0 -7 5 -4 10 3 6 8 10 11 10 2 0
4 -4 4 -10z m-45 -10 c-3 -5 -11 -10 -16 -10 -6 0 -7 5 -4 10 3 6 11 10 16 10
6 0 7 -4 4 -10z m-1003 -33 c-6 -7 -34 -24 -62 -37 -27 -13 -50 -29 -50 -37 0
-7 -3 -13 -7 -13 -5 0 -9 -34 -10 -75 -2 -59 2 -83 17 -110 22 -40 24 -45 12
-45 -5 0 -18 18 -31 40 -24 44 -50 68 -31 29 11 -23 10 -23 -4 -5 -26 33 -18
166 10 166 11 0 12 4 3 19 -7 10 -9 26 -5 36 6 17 7 17 26 0 18 -17 21 -16 72
13 57 33 77 39 60 19z m-32 -134 c0 -13 -20 -19 -20 -5 0 4 -3 18 -6 32 -5 24
-5 24 10 6 9 -11 16 -26 16 -33z m-40 -123 c0 -5 -2 -10 -4 -10 -3 0 -8 5 -11
10 -3 6 -1 10 4 10 6 0 11 -4 11 -10z m-95 -56 c30 -61 29 -85 -1 -29 -10 19
-24 35 -30 35 -7 0 -9 10 -6 25 2 14 6 25 7 25 1 0 15 -25 30 -56z m35 -142
c0 -5 -18 -17 -40 -27 -24 -11 -36 -21 -30 -25 8 -5 6 -9 -5 -13 -10 -4 -14
-3 -9 4 4 8 -1 9 -15 4 -39 -12 -21 4 37 34 66 35 62 33 62 23z m-100 -76 c0
-3 -4 -8 -10 -11 -5 -3 -10 -1 -10 4 0 6 5 11 10 11 6 0 10 -2 10 -4z"/>
<path d="M6728 2993 c6 -2 18 -2 25 0 6 3 1 5 -13 5 -14 0 -19 -2 -12 -5z"/>
<path d="M6803 2983 c9 -2 23 -2 30 0 6 3 -1 5 -18 5 -16 0 -22 -2 -12 -5z"/>
<path d="M6420 3414 c-66 -30 -68 -33 -50 -44 8 -5 11 -12 7 -17 -4 -4 -17 -2
-28 5 -14 9 -6 -14 32 -90 29 -57 54 -105 56 -107 2 -3 10 5 19 17 8 12 21 22
29 22 8 0 17 5 21 12 5 8 2 9 -9 5 -10 -4 -17 -2 -17 4 0 7 9 9 21 6 14 -4 51
10 107 39 131 69 125 63 97 110 -13 21 -25 35 -25 31 0 -5 8 -22 17 -38 15
-26 16 -31 3 -39 -8 -5 -18 -6 -24 -3 -5 3 -6 2 -3 -4 7 -11 -34 -33 -61 -33
-10 0 -26 10 -36 22 l-19 22 -10 -22 c-11 -25 -27 -29 -27 -7 0 8 -12 18 -27
21 -16 4 -38 19 -50 33 -22 25 -23 25 -38 6 -9 -11 -14 -14 -10 -7 3 6 1 12
-6 12 -8 0 -8 4 1 15 7 8 20 15 29 15 14 0 74 39 61 40 -3 0 -30 -12 -60 -26z
m-26 -116 c3 -16 4 -28 1 -28 -9 0 -34 57 -28 64 9 9 19 -5 27 -36z m196 -24
c0 -8 -19 -13 -24 -6 -3 5 1 9 9 9 8 0 15 -2 15 -3z m-140 -78 c0 -3 -4 -8
-10 -11 -5 -3 -10 -1 -10 4 0 6 5 11 10 11 6 0 10 -2 10 -4z"/>
<path d="M6515 3430 c-4 -6 -4 -14 -1 -17 3 -4 6 -1 6 5 0 15 26 16 33 2 3 -6
4 -5 3 2 -3 17 -32 22 -41 8z"/>
<path d="M1801 3414 c0 -11 3 -14 6 -6 3 7 2 16 -1 19 -3 4 -6 -2 -5 -13z"/>
<path d="M2101 3414 c0 -11 3 -14 6 -6 3 7 2 16 -1 19 -3 4 -6 -2 -5 -13z"/>
<path d="M3332 3410 c-1 -14 3 -43 7 -65 6 -26 9 -31 9 -15 1 14 -3 43 -7 65
-6 26 -9 31 -9 15z"/>
<path d="M7316 3413 c-6 -14 -5 -15 5 -6 7 7 10 15 7 18 -3 3 -9 -2 -12 -12z"/>
<path d="M2461 3404 c0 -11 3 -14 6 -6 3 7 2 16 -1 19 -3 4 -6 -2 -5 -13z"/>
<path d="M7329 3393 l-24 -28 28 24 c15 14 27 26 27 28 0 8 -8 1 -31 -24z"/>
<path d="M8118 3413 c7 -3 16 -2 19 1 4 3 -2 6 -13 5 -11 0 -14 -3 -6 -6z"/>
<path d="M2125 3380 c-4 -17 -5 -34 -2 -36 2 -3 7 10 11 27 8 42 0 50 -9 9z"/>
<path d="M2253 3403 c15 -2 37 -2 50 0 12 2 0 4 -28 4 -27 0 -38 -2 -22 -4z"/>
<path d="M6034 3384 c-18 -15 -18 -15 2 -5 12 6 25 7 29 3 5 -4 5 -1 1 6 -9
15 -8 15 -32 -4z"/>
<path d="M7860 3380 c6 -11 13 -20 16 -20 2 0 0 9 -6 20 -6 11 -13 20 -16 20
-2 0 0 -9 6 -20z"/>
<path d="M2091 3374 c0 -11 3 -14 6 -6 3 7 2 16 -1 19 -3 4 -6 -2 -5 -13z"/>
<path d="M2665 3360 c-4 -17 -5 -34 -2 -36 2 -3 7 10 11 27 8 42 0 50 -9 9z"/>
<path d="M6736 3377 c3 -10 9 -15 12 -12 3 3 0 11 -7 18 -10 9 -11 8 -5 -6z"/>
<path d="M7330 3363 c-23 -23 -23 -24 -3 -14 22 11 38 30 32 35 -2 2 -15 -8
-29 -21z"/>
<path d="M7375 3380 c-3 -6 1 -7 9 -4 18 7 21 14 7 14 -6 0 -13 -4 -16 -10z"/>
<path d="M2451 3364 c0 -11 3 -14 6 -6 3 7 2 16 -1 19 -3 4 -6 -2 -5 -13z"/>
<path d="M7931 3372 c-1 -8 -6 -10 -13 -6 -10 5 -10 4 -1 -6 15 -16 28 -8 20
12 -4 11 -6 11 -6 0z"/>
<path d="M1903 3363 c15 -2 37 -2 50 0 12 2 0 4 -28 4 -27 0 -38 -2 -22 -4z"/>
<path d="M2621 3365 c1 -19 18 -51 18 -35 0 8 -4 22 -9 30 -5 8 -9 11 -9 5z"/>
<path d="M1776 3329 c-8 -42 0 -50 9 -9 4 17 5 34 2 36 -2 3 -7 -10 -11 -27z"/>
<path d="M2411 3344 c0 -11 3 -14 6 -6 3 7 2 16 -1 19 -3 4 -6 -2 -5 -13z"/>
<path d="M3232 3336 c-15 -34 -15 -36 2 -36 8 0 17 -12 19 -27 3 -23 4 -21 6
9 1 32 -2 36 -16 31 -16 -6 -16 -5 -5 10 8 9 12 21 10 28 -2 6 -9 -1 -16 -15z"/>
<path d="M3425 3330 c-4 -17 -5 -34 -2 -36 2 -3 7 10 11 27 8 42 0 50 -9 9z"/>
<path d="M4917 3354 c-11 -11 -8 -104 3 -104 11 0 30 41 30 64 0 18 -24 48
-33 40z"/>
<path d="M6830 3350 c-8 -5 -10 -10 -5 -10 6 0 17 5 25 10 8 5 11 10 5 10 -5
0 -17 -5 -25 -10z"/>
<path d="M6897 3349 c7 -7 15 -10 18 -7 3 3 -2 9 -12 12 -14 6 -15 5 -6 -5z"/>
<path d="M1980 3350 c-1 -3 -3 -18 -6 -35 -3 -28 -3 -29 7 -6 5 13 8 29 5 35
-2 6 -5 9 -6 6z"/>
<path d="M6750 3343 c0 -17 19 -35 29 -29 8 5 7 11 -3 22 -16 15 -26 18 -26 7z"/>
<path d="M6957 3337 c-3 -7 3 -13 14 -13 13 0 15 3 7 13 -6 7 -12 13 -13 13
-2 0 -5 -6 -8 -13z"/>
<path d="M7126 3335 c-11 -8 -14 -15 -7 -15 7 0 9 -5 6 -11 -4 -6 2 -5 14 3
12 7 17 14 11 16 -6 2 -8 8 -4 13 7 12 2 11 -20 -6z"/>
<path d="M2211 3324 c0 -11 3 -14 6 -6 3 7 2 16 -1 19 -3 4 -6 -2 -5 -13z"/>
<path d="M2441 3324 c0 -11 3 -14 6 -6 3 7 2 16 -1 19 -3 4 -6 -2 -5 -13z"/>
<path d="M6835 3326 c-11 -6 -28 -16 -38 -22 -14 -8 -17 -17 -12 -37 7 -26 28
-40 23 -14 -2 7 9 13 25 15 22 3 27 -1 27 -17 0 -12 -6 -21 -14 -21 -8 0 -17
-4 -21 -9 -3 -6 4 -9 15 -8 11 1 20 5 20 9 0 4 7 8 15 8 19 0 19 5 -2 30 -10
11 -28 20 -41 20 -32 0 -24 19 18 42 19 10 28 18 20 17 -8 -1 -24 -6 -35 -13z"/>
<path d="M7540 3331 c0 -5 9 -7 20 -4 11 3 20 7 20 9 0 2 -9 4 -20 4 -11 0
-20 -4 -20 -9z"/>
<path d="M7260 3320 c-9 -6 -10 -10 -3 -10 6 0 15 5 18 10 8 12 4 12 -15 0z"/>
<path d="M2066 3289 c-8 -42 0 -50 9 -9 4 17 5 34 2 36 -2 3 -7 -10 -11 -27z"/>
<path d="M2301 3304 c0 -11 3 -14 6 -6 3 7 2 16 -1 19 -3 4 -6 -2 -5 -13z"/>
<path d="M2395 3290 c-4 -17 -5 -34 -2 -36 2 -3 7 10 11 27 8 42 0 50 -9 9z"/>
<path d="M7905 3310 c-3 -6 1 -7 9 -4 18 7 21 14 7 14 -6 0 -13 -4 -16 -10z"/>
<path d="M5445 3291 c-5 -12 -31 -55 -58 -96 -37 -60 -44 -77 -32 -81 20 -8
19 -41 -2 -53 -15 -8 -15 -13 -5 -36 15 -33 15 -45 0 -45 -7 0 -64 -25 -126
-55 l-113 -54 -54 49 -55 50 -397 0 c-218 0 -394 -3 -391 -6 3 -3 182 -5 398
-4 l392 1 71 -70 72 -69 24 19 c24 20 41 17 41 -6 0 -15 -27 -28 -41 -19 -5 3
-9 1 -9 -5 0 -5 4 -12 9 -16 14 -8 92 25 90 39 -3 24 1 37 11 31 14 -9 52 4
45 16 -4 5 -1 9 5 9 12 0 7 -46 -16 -125 -27 -97 -43 -169 -39 -174 5 -5 3
-11 45 144 18 66 43 156 55 200 72 252 96 347 93 361 -2 12 -5 11 -13 -5z
m-204 -382 c-57 -28 -106 -48 -108 -45 -6 5 103 62 157 82 72 26 52 11 -49
-37z"/>
<path d="M6708 3302 c-1 -4 -48 -32 -103 -61 -55 -29 -104 -58 -110 -63 -11
-12 224 110 240 124 5 5 2 8 -7 8 -9 0 -18 -4 -20 -8z"/>
<path d="M7215 3300 c-3 -6 1 -7 9 -4 18 7 21 14 7 14 -6 0 -13 -4 -16 -10z"/>
<path d="M1898 3293 c12 -2 30 -2 40 0 9 3 -1 5 -23 4 -22 0 -30 -2 -17 -4z"/>
<path d="M2101 3284 c0 -11 3 -14 6 -6 3 7 2 16 -1 19 -3 4 -6 -2 -5 -13z"/>
<path d="M2196 3274 c-4 -14 -5 -28 -3 -31 3 -2 8 8 11 23 4 14 5 28 3 31 -3
2 -8 -8 -11 -23z"/>
<path d="M2426 3274 c-4 -14 -5 -28 -3 -31 3 -2 8 8 11 23 4 14 5 28 3 31 -3
2 -8 -8 -11 -23z"/>
<path d="M3352 3275 c0 -16 2 -22 5 -12 2 9 2 23 0 30 -3 6 -5 -1 -5 -18z"/>
<path d="M7050 3255 c-24 -25 -41 -45 -36 -45 4 0 28 20 54 45 25 25 42 45 36
45 -5 0 -30 -20 -54 -45z"/>
<path d="M7475 3271 c-33 -16 -56 -30 -52 -30 4 -1 25 8 47 19 48 25 61 25 53
3 -6 -15 -5 -16 9 -3 9 8 12 17 7 18 -5 2 -7 8 -3 13 8 13 6 12 -61 -20z"/>
<path d="M7775 3289 c-4 -6 -4 -13 -1 -16 3 -3 0 -13 -7 -22 -10 -14 -10 -14
4 -4 9 7 18 10 21 7 4 -3 28 6 55 20 26 14 44 25 40 26 -4 0 -26 -9 -49 -21
-30 -15 -43 -18 -52 -9 -8 8 -7 13 4 20 9 6 10 10 3 10 -6 0 -15 -5 -18 -11z"/>
<path d="M6886 3273 c-6 -14 -5 -15 5 -6 7 7 10 15 7 18 -3 3 -9 -2 -12 -12z"/>
<path d="M7164 3274 c-18 -14 -18 -14 6 -3 31 14 36 19 24 19 -6 0 -19 -7 -30
-16z"/>
<path d="M2515 3240 c-4 -17 -5 -34 -2 -36 2 -3 7 10 11 27 8 42 0 50 -9 9z"/>
<path d="M2561 3265 c1 -19 18 -51 18 -35 0 8 -4 22 -9 30 -5 8 -9 11 -9 5z"/>
<path d="M5181 3260 c-47 -7 -62 -21 -92 -85 -22 -47 -24 -75 -6 -75 21 0 107
58 107 73 0 7 11 24 25 37 25 23 32 45 18 53 -5 2 -28 0 -52 -3z"/>
<path d="M2091 3244 c0 -11 3 -14 6 -6 3 7 2 16 -1 19 -3 4 -6 -2 -5 -13z"/>
<path d="M7477 3235 c-15 -14 -27 -31 -27 -37 0 -6 1 -9 3 -7 1 2 15 19 31 37
35 38 32 42 -7 7z"/>
<path d="M7571 3240 c14 -31 19 -36 19 -24 0 6 -7 19 -16 30 -14 18 -14 18 -3
-6z"/>
<path d="M3401 3234 c0 -11 3 -14 6 -6 3 7 2 16 -1 19 -3 4 -6 -2 -5 -13z"/>
<path d="M1746 3218 c-11 -44 -8 -48 42 -46 l47 1 -43 4 c-42 4 -43 5 -37 34
8 34 0 40 -9 7z"/>
<path d="M2046 3214 c-4 -14 -5 -28 -3 -31 3 -2 8 8 11 23 4 14 5 28 3 31 -3
2 -8 -8 -11 -23z"/>
<path d="M2228 3233 c12 -2 32 -2 45 0 12 2 2 4 -23 4 -25 0 -35 -2 -22 -4z"/>
<path d="M3193 3233 c9 -2 25 -2 35 0 9 3 1 5 -18 5 -19 0 -27 -2 -17 -5z"/>
<path d="M3362 3215 c0 -16 2 -22 5 -12 2 9 2 23 0 30 -3 6 -5 -1 -5 -18z"/>
<path d="M7530 3231 c0 -6 4 -13 10 -16 6 -3 7 1 4 9 -7 18 -14 21 -14 7z"/>
<path d="M2411 3214 c0 -11 3 -14 6 -6 3 7 2 16 -1 19 -3 4 -6 -2 -5 -13z"/>
<path d="M3261 3214 c0 -11 3 -14 6 -6 3 7 2 16 -1 19 -3 4 -6 -2 -5 -13z"/>
<path d="M7347 3214 c-16 -9 -27 -18 -24 -21 6 -5 67 24 67 32 0 8 -14 5 -43
-11z"/>
<path d="M7640 3215 c-14 -8 -41 -15 -60 -16 -19 -1 -27 -3 -17 -6 9 -2 14 -9
11 -14 -3 -6 17 1 44 15 28 14 59 23 69 20 15 -5 16 -4 3 5 -19 13 -20 13 -50
-4z"/>
<path d="M3160 3201 c-7 -14 -23 -21 -55 -24 l-45 -4 46 1 c37 1 50 6 62 24 8
12 12 22 9 22 -4 0 -11 -9 -17 -19z"/>
<path d="M1841 3194 c0 -11 3 -14 6 -6 3 7 2 16 -1 19 -3 4 -6 -2 -5 -13z"/>
<path d="M2370 3197 c0 -14 -15 -17 -92 -20 l-93 -3 93 -2 c76 -2 94 1 99 13
3 9 3 19 -1 22 -3 4 -6 -1 -6 -10z"/>
<path d="M3391 3192 c-1 -22 2 -23 51 -20 44 3 53 6 55 23 1 16 1 16 -3 3 -4
-14 -16 -18 -49 -18 -33 0 -45 4 -48 18 -3 12 -5 11 -6 -6z"/>
<path d="M1940 3188 c0 -15 8 -18 48 -16 47 1 47 1 7 5 -22 3 -43 10 -47 16
-5 8 -8 6 -8 -5z"/>
<path d="M2407 3178 c2 -5 26 -8 54 -8 27 0 49 3 49 8 0 4 -24 7 -54 7 -30 0
-52 -3 -49 -7z"/>
<path d="M7238 3183 c7 -3 16 -2 19 1 4 3 -2 6 -13 5 -11 0 -14 -3 -6 -6z"/>
<path d="M2103 3173 c15 -2 37 -2 50 0 12 2 0 4 -28 4 -27 0 -38 -2 -22 -4z"/>
<path d="M2998 3173 c7 -3 16 -2 19 1 4 3 -2 6 -13 5 -11 0 -14 -3 -6 -6z"/>
<path d="M3291 3173 c19 -3 29 -13 37 -36 l10 -32 1 32 c1 21 7 33 19 36 9 3
-8 5 -38 4 -30 0 -43 -2 -29 -4z"/>
<path d="M6398 3151 c-1 -5 -31 -23 -65 -40 -35 -17 -63 -34 -63 -36 0 -4 138
61 148 70 2 2 -1 6 -6 9 -6 3 -12 2 -14 -3z"/>
<path d="M3410 3120 c0 -5 9 -10 20 -10 11 0 20 5 20 10 0 6 -9 10 -20 10 -11
0 -20 -4 -20 -10z"/>
<path d="M3319 3083 c-13 -16 -12 -17 4 -4 16 13 21 21 13 21 -2 0 -10 -8 -17
-17z"/>
<path d="M6140 3010 c-9 -6 -10 -10 -3 -10 6 0 15 5 18 10 8 12 4 12 -15 0z"/>
<path d="M6100 2990 c-9 -6 -10 -10 -3 -10 6 0 15 5 18 10 8 12 4 12 -15 0z"/>
<path d="M1728 2963 c34 -2 90 -2 125 0 34 2 6 3 -63 3 -69 0 -97 -1 -62 -3z"/>
<path d="M3648 2963 c12 -2 30 -2 40 0 9 3 -1 5 -23 4 -22 0 -30 -2 -17 -4z"/>
<path d="M7758 2963 c45 -2 119 -2 165 0 45 1 8 3 -83 3 -91 0 -128 -2 -82 -3z"/>
<path d="M8283 2963 c54 -2 139 -2 190 0 51 1 7 3 -98 3 -104 0 -146 -2 -92
-3z"/>
<path d="M1652 2940 c0 -14 2 -19 5 -12 2 6 2 18 0 25 -3 6 -5 1 -5 -13z"/>
<path d="M1922 2940 c0 -14 2 -19 5 -12 2 6 2 18 0 25 -3 6 -5 1 -5 -13z"/>
<path d="M3537 2855 c-43 -58 -82 -105 -87 -105 -6 0 -10 -6 -10 -14 0 -7 -23
-44 -52 -82 -28 -38 -63 -84 -76 -101 -13 -18 -22 -33 -19 -33 4 0 130 161
167 214 8 11 44 62 81 111 68 94 83 115 77 115 -3 0 -39 -47 -81 -105z"/>
<path d="M3711 2950 c0 -8 4 -24 9 -35 5 -13 9 -14 9 -5 0 8 -4 24 -9 35 -5
13 -9 14 -9 5z"/>
<path d="M4190 2949 c0 -9 9 -27 21 -40 11 -13 18 -18 14 -11 -29 57 -35 65
-35 51z"/>
<path d="M7661 2944 c0 -11 3 -14 6 -6 3 7 2 16 -1 19 -3 4 -6 -2 -5 -13z"/>
<path d="M8012 2940 c0 -14 2 -19 5 -12 2 6 2 18 0 25 -3 6 -5 1 -5 -13z"/>
<path d="M1946 2899 c-7 -34 -1 -49 17 -48 8 0 8 2 -1 6 -9 3 -11 16 -6 39 3
19 4 34 1 34 -2 0 -7 -14 -11 -31z"/>
<path d="M3395 2885 c-3 -26 -4 -49 -2 -51 3 -3 8 16 12 41 3 26 4 49 2 51 -3
3 -8 -16 -12 -41z"/>
<path d="M3736 2870 c4 -14 13 -38 20 -55 11 -24 13 -25 8 -5 -4 14 -13 39
-20 55 -11 24 -13 25 -8 5z"/>
<path d="M1631 2864 c0 -11 3 -14 6 -6 3 7 2 16 -1 19 -3 4 -6 -2 -5 -13z"/>
<path d="M1901 2864 c0 -11 3 -14 6 -6 3 7 2 16 -1 19 -3 4 -6 -2 -5 -13z"/>
<path d="M4236 2867 c3 -10 9 -15 12 -12 3 3 0 11 -7 18 -10 9 -11 8 -5 -6z"/>
<path d="M7642 2860 c0 -14 2 -19 5 -12 2 6 2 18 0 25 -3 6 -5 1 -5 -13z"/>
<path d="M2655 2862 c-5 -4 -10 -47 -10 -97 0 -49 -3 -110 -7 -135 -11 -69 9
-15 37 103 13 54 27 107 30 118 5 15 2 19 -17 19 -13 0 -27 -4 -33 -8z"/>
<path d="M2988 2862 c-19 -2 -28 -9 -27 -20 0 -11 3 -12 6 -4 2 6 13 12 24 12
16 0 18 -5 12 -32 -7 -40 0 -35 15 9 12 36 9 40 -30 35z"/>
<path d="M5843 2857 c-3 -4 0 -13 6 -20 5 -7 14 -25 20 -39 8 -22 7 -26 -4
-22 -7 3 -16 17 -20 31 -3 14 -8 24 -10 21 -11 -10 -93 -312 -88 -324 4 -11
30 -14 109 -14 136 0 164 13 239 115 30 41 55 77 55 80 0 2 18 28 40 57 22 29
40 56 40 60 0 4 -15 -2 -32 -13 -18 -12 -69 -41 -113 -65 -74 -41 -81 -43 -92
-27 -22 29 -15 37 65 67 42 16 99 40 125 53 27 14 52 22 55 19 6 -7 32 13 32
25 0 10 -420 7 -427 -4z m97 -33 c0 -8 -4 -14 -10 -14 -5 0 -10 9 -10 21 0 11
5 17 10 14 6 -3 10 -13 10 -21z m70 16 c-20 -13 -40 -13 -40 0 0 6 12 10 28
10 21 0 24 -2 12 -10z m-100 -30 c0 -5 -5 -10 -11 -10 -5 0 -7 5 -4 10 3 6 8
10 11 10 2 0 4 -4 4 -10z m-30 -91 c0 -6 -4 -7 -10 -4 -5 3 -10 11 -10 16 0 6
5 7 10 4 6 -3 10 -11 10 -16z m246 -35 c-15 -14 -31 -23 -34 -20 -9 9 30 46
47 46 11 -1 8 -8 -13 -26z m-136 -52 c0 -5 -22 -19 -50 -32 -27 -13 -50 -30
-50 -37 0 -7 -13 -16 -30 -19 -16 -4 -27 -10 -25 -15 3 -4 1 -10 -4 -14 -6 -3
-15 3 -20 14 -14 25 -4 32 95 76 91 40 84 37 84 27z m79 -36 c-18 -16 -162
-86 -176 -85 -10 0 25 22 77 48 52 27 97 47 99 45 2 -2 2 -6 0 -8z"/>
<path d="M7151 2860 c0 -8 6 -28 14 -45 17 -39 18 -21 0 25 -7 19 -14 28 -14
20z"/>
<path d="M2148 2853 c89 -2 235 -2 325 0 89 1 16 3 -163 3 -179 0 -252 -2
-162 -3z"/>
<path d="M3140 2853 c99 -4 105 -5 130 -31 14 -16 19 -21 13 -12 -35 46 14 55
61 13 l31 -28 -29 33 -30 32 -140 -2 c-131 -2 -133 -2 -36 -5z"/>
<path d="M4708 2853 c198 -3 202 -4 192 -23 -15 -28 -5 -25 14 5 l16 25 -212
-2 -213 -3 203 -2z"/>
<path d="M1891 2824 c0 -11 3 -14 6 -6 3 7 2 16 -1 19 -3 4 -6 -2 -5 -13z"/>
<path d="M4212 2768 c-26 -90 -36 -135 -30 -128 8 8 60 192 55 196 -2 3 -13
-28 -25 -68z"/>
<path d="M4501 2824 c0 -11 3 -14 6 -6 3 7 2 16 -1 19 -3 4 -6 -2 -5 -13z"/>
<path d="M7626 2804 c-4 -14 -5 -28 -3 -31 3 -2 8 8 11 23 4 14 5 28 3 31 -3
2 -8 -8 -11 -23z"/>
<path d="M2942 2778 c-19 -67 -53 -216 -58 -255 -2 -19 -15 -78 -29 -131 -13
-54 -36 -146 -50 -207 -14 -60 -27 -120 -30 -132 -5 -22 -3 -23 79 -23 l85 0
48 65 c122 165 122 165 103 165 -5 0 -10 -6 -10 -13 0 -7 -13 -28 -29 -47 -25
-30 -31 -33 -45 -21 -9 7 -16 22 -16 33 0 11 -5 28 -10 39 -8 14 -7 19 1 19 7
0 6 8 -4 24 -9 13 -13 26 -10 30 10 10 10 69 0 90 -6 12 -5 22 2 29 13 13 14
54 2 62 -11 6 -26 -99 -16 -114 3 -6 2 -11 -3 -11 -12 0 -20 -62 -11 -87 4
-10 2 -24 -4 -32 -9 -10 -7 -16 6 -26 21 -15 23 -39 3 -32 -18 7 -31 -24 -15
-33 8 -6 7 -9 -2 -13 -12 -4 -12 -7 -1 -18 11 -12 15 -11 23 3 5 10 16 15 24
12 10 -4 15 0 15 11 0 9 4 14 9 10 13 -7 -20 -65 -36 -65 -7 0 -13 -7 -13 -16
0 -8 -4 -13 -9 -10 -5 4 -7 -2 -4 -13 7 -26 -12 -35 -31 -15 -15 14 -16 14
-16 -3 -1 -17 -2 -17 -15 1 -8 11 -15 14 -15 8 0 -7 -14 -12 -31 -12 -24 0
-29 4 -25 18 3 9 8 29 12 44 3 16 9 26 13 24 4 -3 6 12 4 32 -2 32 -1 34 6 12
7 -18 9 -1 10 63 1 48 5 87 9 87 5 0 7 -25 6 -55 -2 -30 0 -55 4 -55 4 0 6
-19 4 -41 -3 -29 -1 -40 7 -35 6 4 11 2 11 -3 0 -6 -4 -11 -9 -11 -4 0 -6 -11
-3 -25 5 -27 23 -29 30 -4 3 11 2 11 -7 -1 -9 -11 -10 -4 -5 29 5 32 4 42 -4
37 -7 -4 -12 -2 -12 3 0 6 5 11 11 11 5 0 8 4 4 9 -12 20 -25 215 -15 225 7 7
10 4 10 -7 0 -9 5 -17 10 -17 6 0 10 -7 10 -15 0 -8 5 -15 10 -15 6 0 9 3 8 8
-3 10 13 143 19 159 3 9 -3 13 -22 13 -16 0 -24 4 -19 11 3 6 15 9 25 6 23 -6
33 23 29 86 -1 23 -2 72 -2 110 -1 37 -2 67 -2 67 -1 0 -7 -19 -14 -42z m15
-440 c-3 -8 -6 -5 -6 6 -1 11 2 17 5 13 3 -3 4 -12 1 -19z m13 -103 c6 -8 10
-20 7 -27 -4 -8 -6 -7 -6 4 -1 9 -9 22 -18 27 -10 6 -13 11 -7 11 6 0 17 -7
24 -15z"/>
<path d="M1881 2784 c0 -11 3 -14 6 -6 3 7 2 16 -1 19 -3 4 -6 -2 -5 -13z"/>
<path d="M3455 2790 c-3 -5 -1 -10 4 -10 6 0 11 5 11 10 0 6 -2 10 -4 10 -3 0
-8 -4 -11 -10z"/>
<path d="M4486 2774 c-4 -14 -5 -28 -3 -31 3 -2 8 8 11 23 4 14 5 28 3 31 -3
2 -8 -8 -11 -23z"/>
<path d="M4860 2770 c-14 -20 -59 -49 -129 -85 -89 -44 -118 -54 -167 -56 -32
-1 -70 -6 -83 -11 -13 -5 -25 -7 -27 -5 -2 2 3 26 11 53 8 27 15 54 14 59 0
11 -79 -215 -79 -227 0 -5 53 -8 118 -8 98 0 122 3 149 19 36 23 95 94 161
196 25 39 50 76 55 83 5 6 7 12 4 12 -3 0 -15 -14 -27 -30z m-75 -87 c-16 -16
-34 -29 -40 -29 -5 -1 -17 -2 -26 -3 -8 0 -24 -8 -35 -17 -15 -13 -16 -15 -2
-10 12 4 15 1 11 -11 -5 -13 -2 -13 26 1 40 21 41 6 0 -18 -23 -14 -27 -21
-19 -31 8 -9 8 -15 0 -20 -6 -4 -18 10 -28 34 -12 30 -21 39 -32 35 -8 -4 -43
-9 -77 -12 -35 -2 -63 -6 -63 -9 0 -2 9 -21 20 -43 24 -47 24 -50 5 -50 -9 0
-21 11 -27 25 -7 16 -19 25 -34 25 -41 0 -39 26 4 49 13 7 55 15 95 18 57 5
89 15 157 49 47 24 87 44 90 44 3 0 -9 -12 -25 -27z"/>
<path d="M5193 2776 c3 -8 -5 -31 -18 -50 -14 -20 -21 -36 -17 -36 10 0 52 73
52 89 0 6 -5 11 -11 11 -6 0 -9 -6 -6 -14z"/>
<path d="M3771 2770 c0 -8 6 -28 14 -45 17 -39 18 -21 0 25 -7 19 -14 28 -14
20z"/>
<path d="M6806 2663 c-88 -122 -445 -606 -450 -610 -1 -2 -65 69 -142 156 -76
88 -143 160 -147 160 -8 1 155 -186 254 -293 l36 -38 119 162 c65 89 178 241
249 338 159 215 178 242 171 242 -2 0 -43 -53 -90 -117z"/>
<path d="M1601 2754 c0 -11 3 -14 6 -6 3 7 2 16 -1 19 -3 4 -6 -2 -5 -13z"/>
<path d="M1861 2714 c0 -11 3 -14 6 -6 3 7 2 16 -1 19 -3 4 -6 -2 -5 -13z"/>
<path d="M7601 2714 c0 -11 3 -14 6 -6 3 7 2 16 -1 19 -3 4 -6 -2 -5 -13z"/>
<path d="M5240 2700 c-8 -5 -10 -10 -5 -10 6 0 17 5 25 10 8 5 11 10 5 10 -5
0 -17 -5 -25 -10z"/>
<path d="M1851 2674 c0 -11 3 -14 6 -6 3 7 2 16 -1 19 -3 4 -6 -2 -5 -13z"/>
<path d="M3801 2680 c0 -8 6 -28 14 -45 17 -39 18 -21 0 25 -7 19 -14 28 -14
20z"/>
<path d="M6915 2663 l-18 -28 21 19 c15 13 22 15 22 6 0 -7 3 -11 6 -7 3 3 2
13 -3 22 -8 14 -12 13 -28 -12z"/>
<path d="M1571 2644 c0 -11 3 -14 6 -6 3 7 2 16 -1 19 -3 4 -6 -2 -5 -13z"/>
<path d="M7576 2634 c-4 -14 -5 -28 -3 -31 3 -2 8 8 11 23 4 14 5 28 3 31 -3
2 -8 -8 -11 -23z"/>
<path d="M3470 2619 c-13 -19 -17 -28 -10 -22 10 9 17 10 27 2 10 -9 13 -7 13
7 0 16 2 17 10 4 5 -8 10 -10 10 -4 0 5 -6 18 -13 28 -13 18 -15 17 -37 -15z"/>
<path d="M5099 2623 l-24 -28 28 24 c15 14 27 26 27 28 0 8 -8 1 -31 -24z"/>
<path d="M7921 2634 c0 -11 3 -14 6 -6 3 7 2 16 -1 19 -3 4 -6 -2 -5 -13z"/>
<path d="M6951 2624 c0 -11 3 -14 6 -6 3 7 2 16 -1 19 -3 4 -6 -2 -5 -13z"/>
<path d="M5140 2598 c-25 -11 -56 -24 -70 -29 -24 -9 -24 -8 -6 6 11 8 16 15
12 15 -4 0 -27 -17 -51 -38 -24 -21 -63 -48 -87 -60 -54 -28 -188 -73 -198
-67 -4 2 -19 1 -35 -3 l-28 -8 78 -88 c85 -94 88 -95 158 -61 15 7 27 10 27 6
0 -5 -21 -17 -46 -28 l-46 -20 71 -81 c39 -45 76 -84 81 -87 5 -3 22 1 37 9
16 8 44 23 63 33 19 9 37 19 39 20 7 5 81 278 80 298 0 12 -3 15 -6 7 -4 -10
-135 -82 -150 -82 -2 0 -23 18 -46 39 -62 58 -78 42 -38 -38 17 -33 27 -61 21
-61 -5 0 -10 5 -10 11 0 5 -4 7 -10 4 -5 -3 -7 0 -5 7 3 8 -6 24 -20 36 l-25
22 6 -25 c7 -27 -14 -55 -40 -55 -9 0 -16 -4 -16 -9 0 -5 -10 -11 -22 -13 -36
-5 -96 84 -77 113 7 11 9 11 9 -3 0 -10 4 -18 10 -18 8 0 118 48 129 57 2 1
-4 12 -14 23 -10 11 -13 20 -7 20 7 0 12 -4 12 -10 0 -5 5 -10 11 -10 6 0 8 7
5 16 -3 9 -2 12 4 9 6 -4 23 0 38 8 167 85 213 107 230 107 24 0 35 23 19 39
-15 15 -35 13 -87 -11z m-100 -375 c0 -11 -4 -11 -20 -3 -11 6 -20 15 -20 19
0 5 9 7 20 4 11 -3 20 -12 20 -20z m110 -18 c0 -10 -182 -96 -189 -89 -3 4 -1
9 4 11 6 2 46 21 90 43 80 39 95 44 95 35z"/>
<path d="M8151 2604 c0 -11 3 -14 6 -6 3 7 2 16 -1 19 -3 4 -6 -2 -5 -13z"/>
<path d="M3831 2590 c0 -8 4 -22 9 -30 12 -18 12 -2 0 25 -6 13 -9 15 -9 5z"/>
<path d="M4156 2574 c-4 -14 -5 -28 -3 -31 3 -2 8 8 11 23 4 14 5 28 3 31 -3
2 -8 -8 -11 -23z"/>
<path d="M6960 2595 c0 -5 5 -17 10 -25 5 -8 10 -10 10 -5 0 6 -5 17 -10 25
-5 8 -10 11 -10 5z"/>
<path d="M7906 2585 c-9 -26 -7 -32 5 -12 6 10 9 21 6 23 -2 3 -7 -2 -11 -11z"/>
<path d="M6850 2575 c-7 -9 -8 -15 -2 -15 5 0 12 7 16 15 3 8 4 15 2 15 -2 0
-9 -7 -16 -15z"/>
<path d="M7546 2529 c-10 -33 -16 -63 -13 -65 2 -2 11 24 21 57 9 34 15 63 13
66 -2 2 -12 -24 -21 -58z"/>
<path d="M1821 2564 c0 -11 3 -14 6 -6 3 7 2 16 -1 19 -3 4 -6 -2 -5 -13z"/>
<path d="M3429 2563 c-13 -16 -12 -17 4 -4 16 13 21 21 13 21 -2 0 -10 -8 -17
-17z"/>
<path d="M3520 2571 c0 -6 4 -13 10 -16 6 -3 7 1 4 9 -7 18 -14 21 -14 7z"/>
<path d="M5236 2514 c-9 -37 -15 -68 -13 -71 3 -2 12 26 21 63 9 37 15 68 13
71 -3 2 -12 -26 -21 -63z"/>
<path d="M2972 2550 c0 -14 2 -19 5 -12 2 6 2 18 0 25 -3 6 -5 1 -5 -13z"/>
<path d="M1541 2534 c0 -11 3 -14 6 -6 3 7 2 16 -1 19 -3 4 -6 -2 -5 -13z"/>
<path d="M6819 2533 c-13 -16 -12 -17 4 -4 16 13 21 21 13 21 -2 0 -10 -8 -17
-17z"/>
<path d="M6981 2534 c0 -11 3 -14 6 -6 3 7 2 16 -1 19 -3 4 -6 -2 -5 -13z"/>
<path d="M7892 2530 c0 -14 2 -19 5 -12 2 6 2 18 0 25 -3 6 -5 1 -5 -13z"/>
<path d="M8131 2534 c0 -11 3 -14 6 -6 3 7 2 16 -1 19 -3 4 -6 -2 -5 -13z"/>
<path d="M2611 2524 c0 -11 3 -14 6 -6 3 7 2 16 -1 19 -3 4 -6 -2 -5 -13z"/>
<path d="M3528 2504 c-3 -29 0 -39 19 -51 33 -22 39 -10 19 42 -21 54 -32 57
-38 9z"/>
<path d="M8451 2524 c0 -11 3 -14 6 -6 3 7 2 16 -1 19 -3 4 -6 -2 -5 -13z"/>
<path d="M7831 2504 c0 -11 3 -14 6 -6 3 7 2 16 -1 19 -3 4 -6 -2 -5 -13z"/>
<path d="M2124 2503 c248 -3 332 -6 339 -16 6 -9 7 -8 4 3 -3 13 -49 15 -338
15 l-334 0 329 -2z"/>
<path d="M3269 2493 c-13 -16 -12 -17 4 -4 16 13 21 21 13 21 -2 0 -10 -8 -17
-17z"/>
<path d="M3861 2505 c1 -19 18 -51 18 -35 0 8 -4 22 -9 30 -5 8 -9 11 -9 5z"/>
<path d="M3987 2504 c-8 -8 1 -24 14 -24 5 0 9 7 9 15 0 15 -12 20 -23 9z"/>
<path d="M6779 2478 c-17 -24 -18 -29 -6 -19 18 14 42 51 33 51 -3 0 -15 -15
-27 -32z"/>
<path d="M2596 2469 c-8 -42 0 -50 9 -9 4 17 5 34 2 36 -2 3 -7 -10 -11 -27z"/>
<path d="M3354 2463 c-15 -20 -23 -33 -16 -29 13 8 56 66 49 66 -3 0 -17 -17
-33 -37z"/>
<path d="M4125 2470 c-6 -27 -18 -37 -90 -72 -77 -39 -82 -43 -73 -64 7 -15 7
-28 0 -40 -9 -16 -12 -13 -26 20 -9 21 -16 44 -16 52 0 7 -4 16 -10 19 -15 10
-14 3 47 -178 l56 -170 34 114 c18 63 35 121 36 129 1 8 5 20 9 25 10 17 50
186 45 192 -3 2 -8 -10 -12 -27z m-55 -185 c0 -8 -82 -47 -87 -41 -3 2 12 14
34 25 39 20 53 25 53 16z m-10 -30 c0 -7 -81 -47 -87 -42 -2 3 13 14 34 25 41
21 53 25 53 17z"/>
<path d="M7801 2474 c0 -11 3 -14 6 -6 3 7 2 16 -1 19 -3 4 -6 -2 -5 -13z"/>
<path d="M7871 2464 c0 -11 3 -14 6 -6 3 7 2 16 -1 19 -3 4 -6 -2 -5 -13z"/>
<path d="M2451 2454 c0 -11 3 -14 6 -6 3 7 2 16 -1 19 -3 4 -6 -2 -5 -13z"/>
<path d="M3239 2453 c-13 -16 -12 -17 4 -4 16 13 21 21 13 21 -2 0 -10 -8 -17
-17z"/>
<path d="M6220 2460 c-9 -6 -10 -10 -3 -10 6 0 15 5 18 10 8 12 4 12 -15 0z"/>
<path d="M3881 2445 c1 -19 18 -51 18 -35 0 8 -4 22 -9 30 -5 8 -9 11 -9 5z"/>
<path d="M7011 2443 c-1 -6 3 -23 9 -37 l10 -26 -156 0 c-121 0 -154 3 -148
13 6 9 3 8 -8 -1 -10 -8 -14 -20 -11 -29 4 -10 2 -14 -4 -10 -6 4 -17 -1 -24
-11 -13 -15 -12 -16 4 -3 14 11 17 11 18 0 0 -8 5 -4 11 9 11 21 15 22 170 22
87 0 158 3 157 8 -1 16 -28 76 -28 65z"/>
<path d="M7291 2445 c1 -19 18 -51 18 -35 0 8 -4 22 -9 30 -5 8 -9 11 -9 5z"/>
<path d="M8101 2434 c0 -11 3 -14 6 -6 3 7 2 16 -1 19 -3 4 -6 -2 -5 -13z"/>
<path d="M1512 2420 c0 -14 2 -19 5 -12 2 6 2 18 0 25 -3 6 -5 1 -5 -13z"/>
<path d="M6148 2433 c7 -3 16 -2 19 1 4 3 -2 6 -13 5 -11 0 -14 -3 -6 -6z"/>
<path d="M8421 2424 c0 -11 3 -14 6 -6 3 7 2 16 -1 19 -3 4 -6 -2 -5 -13z"/>
<path d="M2441 2414 c0 -11 3 -14 6 -6 3 7 2 16 -1 19 -3 4 -6 -2 -5 -13z"/>
<path d="M3194 2393 c-15 -20 -23 -33 -16 -29 13 8 56 66 49 66 -3 0 -17 -17
-33 -37z"/>
<path d="M6098 2423 c7 -3 16 -2 19 1 4 3 -2 6 -13 5 -11 0 -14 -3 -6 -6z"/>
<path d="M6010 2415 c0 -2 10 -9 21 -16 13 -7 19 -7 15 -1 -3 6 4 13 16 15 15
3 9 5 -14 6 -21 0 -38 -1 -38 -4z"/>
<path d="M7511 2404 c0 -11 3 -14 6 -6 3 7 2 16 -1 19 -3 4 -6 -2 -5 -13z"/>
<path d="M1673 2403 c82 -2 212 -2 290 0 78 1 12 3 -148 3 -159 0 -223 -2
-142 -3z"/>
<path d="M2148 2403 c6 -2 18 -2 25 0 6 3 1 5 -13 5 -14 0 -19 -2 -12 -5z"/>
<path d="M4411 2363 c20 -21 91 -104 158 -185 120 -145 124 -148 162 -148 l40
0 -117 130 c-64 71 -121 127 -126 124 -4 -3 -7 0 -6 8 2 7 -3 12 -10 10 -8 -1
-11 2 -8 7 6 9 -35 66 -59 83 -5 4 -23 8 -40 8 l-29 0 35 -37z m153 -139 c3
-8 2 -12 -4 -9 -6 3 -10 10 -10 16 0 14 7 11 14 -7z"/>
<path d="M5756 2386 c3 -8 12 -12 20 -9 17 6 9 23 -11 23 -8 0 -12 -6 -9 -14z"/>
<path d="M2131 2374 c0 -11 3 -14 6 -6 3 7 2 16 -1 19 -3 4 -6 -2 -5 -13z"/>
<path d="M2566 2344 c-4 -20 -5 -38 -3 -40 3 -3 8 11 11 32 4 20 5 38 3 40 -3
3 -8 -11 -11 -32z"/>
<path d="M3402 2373 c37 -2 100 -2 140 0 40 1 10 3 -67 3 -77 0 -110 -1 -73
-3z"/>
<path d="M4863 2352 c-29 -14 -53 -30 -53 -34 0 -7 102 43 119 58 13 12 -21
-1 -66 -24z"/>
<path d="M5686 2326 c-15 -51 -19 -76 -13 -76 1 0 28 11 60 24 l58 23 -39 42
c-21 22 -41 41 -44 41 -4 0 -14 -24 -22 -54z m49 13 c10 -15 -1 -23 -20 -15
-9 3 -13 10 -10 16 8 13 22 13 30 -1z m-25 -49 c0 -5 -5 -10 -11 -10 -5 0 -7
5 -4 10 3 6 8 10 11 10 2 0 4 -4 4 -10z"/>
<path d="M8066 2319 c-9 -34 -15 -63 -13 -66 2 -2 12 24 21 58 10 33 16 63 13
65 -2 2 -11 -24 -21 -57z"/>
<path d="M4358 2353 c-47 -172 -114 -389 -121 -394 -5 -4 -114 -6 -242 -6
-224 0 -234 -1 -264 -22 -17 -12 -31 -27 -31 -32 0 -6 -8 -8 -17 -5 -10 3 -31
1 -48 -4 l-30 -10 31 4 c17 3 35 1 41 -5 6 -6 18 0 33 16 28 30 40 32 40 5 0
-14 -7 -20 -22 -20 -18 -1 -20 -2 -8 -9 24 -13 78 -24 60 -11 -11 7 26 10 123
10 135 0 143 -2 138 -32 0 -5 4 -8 10 -8 6 0 8 8 4 19 -5 18 18 91 29 91 3 0
5 -12 5 -27 0 -48 13 -93 27 -93 7 0 25 -11 40 -25 34 -32 45 -33 15 -2 -28
30 -19 59 16 53 33 -7 51 2 69 33 l15 26 -6 -25 c-4 -14 -7 -32 -7 -40 -1 -8
-4 -17 -9 -20 -9 -6 0 -60 11 -60 4 0 5 11 3 24 -8 40 25 41 113 2 44 -19 99
-51 124 -73 44 -38 44 -38 20 -5 -13 17 -28 32 -32 32 -5 0 -6 4 -3 10 3 5 0
7 -8 5 -7 -3 -26 6 -41 20 -15 14 -32 23 -37 20 -5 -4 -9 -1 -9 4 0 12 11 14
34 5 9 -3 13 -11 9 -18 -4 -8 -3 -8 5 -1 11 10 65 7 197 -13 33 -5 78 -8 100
-6 43 3 27 -9 -27 -20 -16 -4 -28 -13 -28 -21 0 -14 -12 -19 -32 -16 -5 0 -8
-3 -8 -9 0 -16 14 -12 49 14 19 14 46 28 62 31 16 4 35 14 41 24 7 10 21 20
32 24 10 4 16 13 13 21 -3 7 15 34 42 60 36 36 50 44 54 33 10 -26 63 -31 112
-10 25 10 45 21 45 24 0 18 -99 33 -234 35 -128 2 -151 5 -159 19 -11 21 -249
308 -289 349 -15 17 -28 33 -28 38 0 15 -18 8 -22 -9z m17 -63 c-3 -5 -12 -10
-18 -10 -7 0 -6 4 3 10 19 12 23 12 15 0z m-195 -430 c-36 -4 -57 -7 -47 -8
24 -3 22 -21 -3 -19 -20 1 -27 17 -13 30 3 4 34 6 67 5 l61 -1 -65 -7z m130
-26 c0 -2 -9 -4 -21 -4 -11 0 -18 4 -14 10 5 8 35 3 35 -6z m58 -21 c16 -16
16 -16 -1 -10 -10 4 -23 7 -28 7 -5 0 -9 5 -9 10 0 15 20 12 38 -7z"/>
<path d="M5785 2360 c-3 -6 14 -31 38 -57 24 -27 78 -90 121 -140 42 -51 80
-93 82 -93 3 0 -15 24 -40 54 -56 64 -60 83 -8 35 l37 -34 -39 42 c-22 24 -42
40 -45 38 -6 -7 -41 26 -41 38 0 6 10 2 23 -9 12 -10 4 0 -17 23 -22 23 -43
40 -47 37 -4 -2 -10 0 -14 6 -3 5 -1 10 5 10 14 0 -17 47 -35 54 -8 3 -17 1
-20 -4z m90 -90 c10 -11 16 -20 13 -20 -3 0 -13 9 -23 20 -10 11 -16 20 -13
20 3 0 13 -9 23 -20z"/>
<path d="M8401 2354 c0 -11 3 -14 6 -6 3 7 2 16 -1 19 -3 4 -6 -2 -5 -13z"/>
<path d="M2421 2344 c0 -11 3 -14 6 -6 3 7 2 16 -1 19 -3 4 -6 -2 -5 -13z"/>
<path d="M3294 2338 l-19 -23 23 19 c12 11 22 21 22 23 0 8 -8 2 -26 -19z"/>
<path d="M7326 2340 c4 -14 13 -38 20 -55 11 -24 13 -25 8 -5 -4 14 -13 39
-20 55 -11 24 -13 25 -8 5z"/>
<path d="M2121 2334 c0 -11 3 -14 6 -6 3 7 2 16 -1 19 -3 4 -6 -2 -5 -13z"/>
<path d="M3135 2314 c-15 -19 -25 -37 -22 -40 2 -2 16 14 31 36 33 50 28 52
-9 4z"/>
<path d="M7831 2324 c0 -11 3 -14 6 -6 3 7 2 16 -1 19 -3 4 -6 -2 -5 -13z"/>
<path d="M2061 2304 c0 -11 3 -14 6 -6 3 7 2 16 -1 19 -3 4 -6 -2 -5 -13z"/>
<path d="M2406 2294 c-4 -14 -5 -28 -3 -31 3 -2 8 8 11 23 4 14 5 28 3 31 -3
2 -8 -8 -11 -23z"/>
<path d="M2900 2290 c0 -16 5 -30 10 -30 6 0 10 14 10 30 0 17 -4 30 -10 30
-5 0 -10 -13 -10 -30z"/>
<path d="M6628 2273 c-18 -27 -33 -52 -33 -56 0 -4 -7 -12 -15 -17 -13 -9 -13
-10 1 -10 8 0 27 13 42 28 27 28 36 49 17 37 -16 -10 -12 5 11 36 11 16 18 29
15 29 -3 0 -20 -21 -38 -47z m2 -27 c0 -2 -8 -10 -17 -17 -16 -13 -17 -12 -4
4 13 16 21 21 21 13z"/>
<path d="M6686 2304 c-11 -29 4 -34 105 -34 70 0 99 -3 99 -12 0 -9 3 -9 12 0
7 7 43 12 89 12 61 0 79 -3 82 -15 4 -11 4 -10 3 2 -1 16 -18 18 -194 21 -187
2 -193 3 -187 22 8 24 0 27 -9 4z"/>
<path d="M7481 2304 c0 -11 3 -14 6 -6 3 7 2 16 -1 19 -3 4 -6 -2 -5 -13z"/>
<path d="M2131 2274 c0 -11 3 -14 6 -6 3 7 2 16 -1 19 -3 4 -6 -2 -5 -13z"/>
<path d="M2551 2274 c0 -11 3 -14 6 -6 3 7 2 16 -1 19 -3 4 -6 -2 -5 -13z"/>
<path d="M3418 2273 l153 -4 -3 -27 c-3 -23 1 -27 22 -27 19 0 26 6 29 25 1
14 8 28 15 32 6 4 -74 7 -179 6 l-190 -2 153 -3z"/>
<path d="M5807 2255 c10 -13 22 -25 27 -25 5 0 -1 11 -14 25 -30 32 -36 32
-13 0z"/>
<path d="M3199 2253 c-13 -16 -12 -17 4 -4 9 7 17 15 17 17 0 8 -8 3 -21 -13z"/>
<path d="M1576 2234 c-10 -27 -5 -40 6 -14 10 24 10 24 18 5 8 -19 9 -19 9 3
1 25 -24 30 -33 6z"/>
<path d="M2042 2230 c0 -14 2 -19 5 -12 2 6 2 18 0 25 -3 6 -5 1 -5 -13z"/>
<path d="M2391 2234 c0 -11 3 -14 6 -6 3 7 2 16 -1 19 -3 4 -6 -2 -5 -13z"/>
<path d="M2541 2234 c0 -11 3 -14 6 -6 3 7 2 16 -1 19 -3 4 -6 -2 -5 -13z"/>
<path d="M7361 2240 c0 -8 6 -28 14 -45 17 -39 18 -21 0 25 -7 19 -14 28 -14
20z"/>
<path d="M7446 2189 c-9 -34 -15 -63 -13 -66 2 -2 12 24 21 58 10 33 16 63 13
65 -2 2 -11 -24 -21 -57z"/>
<path d="M3656 2198 c3 -50 13 -77 40 -99 16 -13 17 -12 10 16 -4 17 -18 53
-30 80 l-23 50 3 -47z"/>
<path d="M5651 2194 c-15 -61 -8 -68 9 -9 7 25 10 48 8 51 -3 2 -11 -16 -17
-42z"/>
<path d="M7801 2224 c0 -11 3 -14 6 -6 3 7 2 16 -1 19 -3 4 -6 -2 -5 -13z"/>
<path d="M8041 2224 c0 -11 3 -14 6 -6 3 7 2 16 -1 19 -3 4 -6 -2 -5 -13z"/>
<path d="M6885 2220 c-3 -5 -1 -10 4 -10 6 0 11 5 11 10 0 6 -2 10 -4 10 -3 0
-8 -4 -11 -10z"/>
<path d="M7082 2220 c0 -8 6 -31 13 -50 7 -19 13 -28 13 -20 0 8 -6 31 -13 50
-7 19 -13 28 -13 20z"/>
<path d="M8361 2214 c0 -11 3 -14 6 -6 3 7 2 16 -1 19 -3 4 -6 -2 -5 -13z"/>
<path d="M1720 2211 c0 -6 5 -13 10 -16 6 -3 10 1 10 9 0 9 -4 16 -10 16 -5 0
-10 -4 -10 -9z"/>
<path d="M5864 2190 c16 -19 58 -70 94 -112 35 -43 66 -78 69 -78 7 0 -155
196 -175 212 -9 7 -4 -3 12 -22z"/>
<path d="M1560 2186 c0 -2 8 -10 18 -17 15 -13 16 -12 3 4 -13 16 -21 21 -21
13z"/>
<path d="M3139 2173 c-13 -16 -12 -17 4 -4 16 13 21 21 13 21 -2 0 -10 -8 -17
-17z"/>
<path d="M8350 2178 c0 -16 10 -18 78 -16 l77 2 -70 3 c-39 2 -73 9 -77 16 -5
8 -8 6 -8 -5z"/>
<path d="M2365 2150 c-4 -17 -5 -34 -2 -36 2 -3 7 10 11 27 3 18 4 34 2 36 -2
3 -7 -10 -11 -27z"/>
<path d="M6547 2167 c-4 -10 2 -13 19 -9 13 2 21 8 18 13 -8 14 -31 11 -37 -4z"/>
<path d="M6860 2154 c-6 -16 -17 -40 -24 -54 -54 -102 -91 -170 -108 -199 -12
-18 -22 -48 -23 -66 -1 -18 -10 -47 -19 -65 -12 -25 -13 -36 -5 -47 23 -27 55
22 114 176 39 100 88 271 81 279 -3 2 -10 -8 -16 -24z"/>
<path d="M2521 2154 c0 -11 3 -14 6 -6 3 7 2 16 -1 19 -3 4 -6 -2 -5 -13z"/>
<path d="M8016 2144 c-4 -14 -5 -28 -3 -31 3 -2 8 8 11 23 4 14 5 28 3 31 -3
2 -8 -8 -11 -23z"/>
<path d="M2071 2144 c0 -11 3 -14 6 -6 3 7 2 16 -1 19 -3 4 -6 -2 -5 -13z"/>
<path d="M7391 2150 c0 -8 4 -22 9 -30 12 -18 12 -2 0 25 -6 13 -9 15 -9 5z"/>
<path d="M8546 2115 c21 -24 44 -47 52 -50 8 -3 -7 17 -34 45 -27 27 -50 50
-52 50 -2 0 14 -20 34 -45z"/>
<path d="M3050 2056 c-65 -86 -95 -111 -126 -105 -5 1 -46 1 -91 0 -72 -1 -83
-3 -83 -18 0 -15 2 -16 10 -3 8 12 10 12 16 -3 4 -11 15 -17 28 -16 23 2 75
-10 91 -21 21 -15 75 -20 75 -6 0 7 11 19 25 26 14 7 25 16 25 20 0 3 15 25
33 49 l32 42 6 -33 6 -33 2 38 c0 21 -3 47 -9 57 -11 20 -3 53 11 45 4 -3 6
-12 2 -20 -6 -17 12 -20 22 -4 4 5 19 15 33 20 l25 10 -24 16 c-13 9 -27 21
-30 26 -3 4 -39 -35 -79 -87z m-83 -138 c-3 -8 -6 -5 -6 6 -1 11 2 17 5 13 3
-3 4 -12 1 -19z"/>
<path d="M2012 2120 c0 -14 2 -19 5 -12 2 6 2 18 0 25 -3 6 -5 1 -5 -13z"/>
<path d="M2852 2110 c0 -19 2 -27 5 -17 2 9 2 25 0 35 -3 9 -5 1 -5 -18z"/>
<path d="M6520 2125 c-8 -9 -8 -15 -2 -15 12 0 26 19 19 26 -2 2 -10 -2 -17
-11z"/>
<path d="M7771 2124 c0 -11 3 -14 6 -6 3 7 2 16 -1 19 -3 4 -6 -2 -5 -13z"/>
<path d="M2512 2110 c0 -14 2 -19 5 -12 2 6 2 18 0 25 -3 6 -5 1 -5 -13z"/>
<path d="M5609 2042 l-24 -87 -135 -5 -135 -6 131 -2 c95 -1 134 1 142 11 12
14 55 167 49 173 -2 2 -15 -35 -28 -84z"/>
<path d="M7111 2123 c0 -5 13 -46 28 -93 l27 -85 273 -3 c185 -1 278 1 287 8
12 11 38 109 30 117 -2 2 -10 -22 -17 -54 l-14 -58 -276 -3 -276 -2 -27 90
c-15 49 -29 90 -31 90 -3 0 -5 -3 -4 -7z"/>
<path d="M1636 2107 c3 -10 9 -15 12 -12 3 3 0 11 -7 18 -10 9 -11 8 -5 -6z"/>
<path d="M3573 2113 c-7 -2 -13 -11 -13 -19 0 -8 -8 -14 -17 -14 -21 -1 -61
-72 -44 -78 6 -2 11 -13 11 -25 0 -12 5 -29 10 -37 7 -11 10 -6 10 20 0 26 3
31 10 20 9 -13 10 -13 10 0 1 11 28 -51 30 -66 1 -7 -40 -10 -44 -3 -2 5 -3 4
-2 -3 4 -19 28 -17 54 6 25 22 30 48 7 40 -21 -9 -19 3 6 29 12 12 19 17 15
10 -3 -6 -2 -14 4 -18 6 -4 8 -11 4 -16 -3 -6 3 -5 15 3 24 15 26 24 8 35 -7
4 -20 32 -28 62 -14 54 -22 64 -46 54z m24 -19 c-3 -3 -12 -4 -19 -1 -8 3 -5
6 6 6 11 1 17 -2 13 -5z m-80 -76 c-3 -8 -6 -5 -6 6 -1 11 2 17 5 13 3 -3 4
-12 1 -19z"/>
<path d="M6035 2090 c17 -19 31 -37 33 -39 1 -2 4 -2 7 1 3 2 -12 20 -33 39
l-37 34 30 -35z"/>
<path d="M7416 2101 c-4 -7 -5 -15 -2 -18 9 -9 19 4 14 18 -4 11 -6 11 -12 0z"/>
<path d="M5114 2091 c-5 -5 -18 -11 -29 -14 -15 -4 -14 -5 7 -6 15 0 30 4 33
10 9 14 1 21 -11 10z"/>
<path d="M3681 2069 c-20 -8 -22 -13 -16 -42 4 -17 8 -40 8 -49 1 -14 10 -18
45 -18 49 0 50 4 17 83 -16 40 -18 41 -54 26z"/>
<path d="M7681 2064 c0 -11 3 -14 6 -6 3 7 2 16 -1 19 -3 4 -6 -2 -5 -13z"/>
<path d="M2341 2054 c0 -11 3 -14 6 -6 3 7 2 16 -1 19 -3 4 -6 -2 -5 -13z"/>
<path d="M1540 2050 c0 -5 23 -10 50 -10 28 0 50 5 50 10 0 6 -22 10 -50 10
-27 0 -50 -4 -50 -10z"/>
<path d="M1788 2053 c29 -2 74 -2 100 0 26 2 2 3 -53 3 -55 0 -76 -1 -47 -3z"/>
<path d="M6040 2045 c7 -8 24 -14 39 -14 l26 2 -27 4 c-16 2 -28 9 -28 14 0 5
-5 9 -11 9 -8 0 -8 -5 1 -15z"/>
<path d="M6460 2045 c-7 -9 -8 -15 -2 -15 5 0 12 7 16 15 3 8 4 15 2 15 -2 0
-9 -7 -16 -15z"/>
<path d="M7678 2033 c7 -3 16 -2 19 1 4 3 -2 6 -13 5 -11 0 -14 -3 -6 -6z"/>
<path d="M7981 2024 c0 -11 3 -14 6 -6 3 7 2 16 -1 19 -3 4 -6 -2 -5 -13z"/>
<path d="M8682 2033 c37 -2 100 -2 140 0 40 1 10 3 -67 3 -77 0 -110 -1 -73
-3z"/>
<path d="M688 2023 c6 -2 18 -2 25 0 6 3 1 5 -13 5 -14 0 -19 -2 -12 -5z"/>
<path d="M953 2023 c15 -2 37 -2 50 0 12 2 0 4 -28 4 -27 0 -38 -2 -22 -4z"/>
<path d="M1168 2023 c12 -2 32 -2 45 0 12 2 2 4 -23 4 -25 0 -35 -2 -22 -4z"/>
<path d="M2331 2014 c0 -11 3 -14 6 -6 3 7 2 16 -1 19 -3 4 -6 -2 -5 -13z"/>
<path d="M6429 2003 c-13 -16 -12 -17 4 -4 16 13 21 21 13 21 -2 0 -10 -8 -17
-17z"/>
<path d="M6460 2009 c0 -5 5 -7 10 -4 6 3 10 8 10 11 0 2 -4 4 -10 4 -5 0 -10
-5 -10 -11z"/>
<path d="M8909 2007 c4 -4 113 -6 242 -5 l234 3 -242 5 c-133 3 -239 2 -234
-3z"/>
<path d="M2481 1984 c0 -11 3 -14 6 -6 3 7 2 16 -1 19 -3 4 -6 -2 -5 -13z"/>
<path d="M7967 1978 c-3 -12 -4 -25 -1 -30 8 -13 1451 -10 1460 3 3 6 -2 18
-12 27 -10 10 -13 10 -6 3 6 -8 12 -19 12 -23 0 -4 -326 -8 -725 -8 l-725 0 6
25 c3 14 4 25 1 25 -2 0 -7 -10 -10 -22z"/>
<path d="M3121 1974 c0 -11 3 -14 6 -6 3 7 2 16 -1 19 -3 4 -6 -2 -5 -13z"/>
<path d="M1033 1953 c235 -2 619 -2 855 0 235 1 42 2 -428 2 -470 0 -663 -1
-427 -2z"/>
<path d="M2471 1944 c0 -11 3 -14 6 -6 3 7 2 16 -1 19 -3 4 -6 -2 -5 -13z"/>
<path d="M3177 1953 c-3 -5 6 -9 19 -9 13 -1 21 2 18 7 -6 11 -31 12 -37 2z"/>
<path d="M6059 1947 c4 -4 84 -6 177 -5 l169 3 -177 5 c-97 3 -174 2 -169 -3z"/>
<path d="M3049 1933 c-12 -16 -12 -17 1 -7 8 6 22 14 30 17 13 5 12 6 -1 6 -9
1 -23 -7 -30 -16z"/>
<path d="M5288 1933 c7 -3 16 -2 19 1 4 3 -2 6 -13 5 -11 0 -14 -3 -6 -6z"/>
<path d="M6452 1905 c0 -16 2 -22 5 -12 2 9 2 23 0 30 -3 6 -5 -1 -5 -18z"/>
<path d="M2461 1904 c0 -11 3 -14 6 -6 3 7 2 16 -1 19 -3 4 -6 -2 -5 -13z"/>
<path d="M5205 1909 c-4 -6 -4 -13 -1 -16 3 -4 6 -1 6 5 0 6 8 13 18 15 15 4
15 5 0 6 -9 0 -20 -4 -23 -10z"/>
<path d="M3190 1895 c0 -8 2 -15 4 -15 2 0 6 7 10 15 3 8 1 15 -4 15 -6 0 -10
-7 -10 -15z"/>
<path d="M3106 1891 c-4 -5 3 -7 14 -4 23 6 26 13 6 13 -8 0 -17 -4 -20 -9z"/>
<path d="M3553 1883 c-18 -2 -33 -8 -33 -12 0 -4 16 -5 35 -3 19 2 35 8 35 13
0 5 -1 8 -2 7 -2 0 -18 -3 -35 -5z"/>
<path d="M2451 1864 c0 -11 3 -14 6 -6 3 7 2 16 -1 19 -3 4 -6 -2 -5 -13z"/>
<path d="M5065 1830 c-4 -28 -5 -53 -2 -56 2 -3 7 19 11 47 4 28 5 53 3 56 -3
2 -8 -19 -12 -47z"/>
<path d="M3057 1859 c7 -7 15 -10 18 -7 3 3 -2 9 -12 12 -14 6 -15 5 -6 -5z"/>
<path d="M6441 1844 c0 -11 3 -14 6 -6 3 7 2 16 -1 19 -3 4 -6 -2 -5 -13z"/>
<path d="M3800 1845 c0 -2 10 -10 23 -16 20 -11 21 -11 8 4 -13 16 -31 23 -31
12z"/>
<path d="M3470 1831 c0 -9 30 -24 36 -18 2 1 -6 8 -16 15 -11 7 -20 8 -20 3z"/>
<path d="M2432 1803 c-13 -34 -45 -194 -39 -199 2 -2 16 46 32 106 26 105 30
153 7 93z"/>
<path d="M4180 1821 c0 -6 9 -11 20 -11 11 0 20 -6 20 -14 0 -8 5 -18 11 -22
8 -4 9 1 4 17 -9 29 -5 25 -32 33 -14 5 -23 3 -23 -3z"/>
<path d="M2730 1820 c-8 -26 -7 -41 2 -32 6 6 8 16 5 24 -3 7 -6 11 -7 8z"/>
<path d="M3678 1813 c7 -3 16 -2 19 1 4 3 -2 6 -13 5 -11 0 -14 -3 -6 -6z"/>
<path d="M3718 1813 c7 -3 16 -2 19 1 4 3 -2 6 -13 5 -11 0 -14 -3 -6 -6z"/>
<path d="M4050 1818 c0 -2 7 -23 15 -48 13 -37 14 -39 9 -10 -3 19 -6 41 -7
48 0 6 -4 12 -9 12 -4 0 -8 -1 -8 -2z"/>
<path d="M3860 1806 c0 -2 12 -11 26 -21 17 -11 25 -12 22 -4 -4 11 -48 34
-48 25z"/>
<path d="M5095 1576 c-42 -129 -75 -240 -73 -248 3 -7 11 5 18 27 7 22 17 43
22 46 5 3 11 21 12 40 5 55 5 57 22 73 9 9 24 56 35 104 10 48 25 109 34 136
8 27 13 51 11 53 -2 2 -38 -102 -81 -231z"/>
<path d="M5430 1794 c0 -8 5 -12 10 -9 6 3 10 10 10 16 0 5 -4 9 -10 9 -5 0
-10 -7 -10 -16z"/>
<path d="M3680 1796 c0 -2 7 -7 16 -10 8 -3 12 -2 9 4 -6 10 -25 14 -25 6z"/>
<path d="M4302 1760 c-6 -11 -12 -25 -11 -32 0 -7 4 -3 10 10 13 35 50 25 72
-18 12 -25 16 -28 11 -10 -5 24 -47 70 -62 70 -4 0 -13 -9 -20 -20z"/>
<path d="M2711 1754 c0 -11 3 -14 6 -6 3 7 2 16 -1 19 -3 4 -6 -2 -5 -13z"/>
<path d="M3920 1766 c0 -2 8 -10 18 -17 15 -13 16 -12 3 4 -13 16 -21 21 -21
13z"/>
<path d="M5628 1759 c-25 -14 -22 -26 8 -33 33 -9 59 10 43 30 -13 16 -27 17
-51 3z"/>
<path d="M5052 1735 c0 -16 2 -22 5 -12 2 9 2 23 0 30 -3 6 -5 -1 -5 -18z"/>
<path d="M4110 1739 c0 -5 5 -7 10 -4 6 3 10 8 10 11 0 2 -4 4 -10 4 -5 0 -10
-5 -10 -11z"/>
<path d="M3828 1733 c6 -2 18 -2 25 0 6 3 1 5 -13 5 -14 0 -19 -2 -12 -5z"/>
<path d="M4230 1721 c0 -11 -4 -23 -10 -26 -5 -3 -10 -12 -9 -18 0 -9 2 -8 6
1 2 6 8 10 12 8 4 -3 8 9 9 25 1 16 0 29 -3 29 -3 0 -5 -9 -5 -19z"/>
<path d="M2681 1641 c-12 -46 -30 -99 -39 -117 -15 -33 -11 -57 8 -38 14 15
62 190 58 216 -2 14 -12 -8 -27 -61z"/>
<path d="M4111 1704 c0 -11 3 -14 6 -6 3 7 2 16 -1 19 -3 4 -6 -2 -5 -13z"/>
<path d="M4135 1710 c3 -4 14 -10 25 -13 11 -3 18 -2 15 3 -3 4 -14 10 -25 13
-11 3 -18 2 -15 -3z"/>
<path d="M5232 1693 c2 -10 12 -18 23 -18 11 0 21 8 23 18 3 13 -3 17 -23 17
-20 0 -26 -4 -23 -17z m38 3 c0 -11 -19 -15 -25 -6 -3 5 1 10 9 10 9 0 16 -2
16 -4z"/>
<path d="M4320 1680 c6 -11 13 -20 16 -20 2 0 0 9 -6 20 -6 11 -13 20 -16 20
-2 0 0 -9 6 -20z"/>
<path d="M5041 1687 c0 -10 -6 -27 -12 -39 -10 -19 -23 -125 -21 -181 1 -15
-4 -40 -10 -55 -14 -35 -18 -81 -8 -87 10 -6 14 12 40 182 12 78 19 155 17
170 -2 16 -5 20 -6 10z"/>
<path d="M5760 1680 c-20 -20 -27 -50 -11 -50 4 0 13 -15 18 -32 5 -18 15 -32
21 -30 7 1 11 -4 10 -10 -6 -26 26 -12 35 16 8 24 6 32 -9 43 -10 7 -26 13
-35 13 -16 0 -17 3 -3 28 24 47 11 59 -26 22z"/>
<path d="M6682 1677 c-12 -13 -19 -27 -15 -31 4 -4 1 -4 -8 -1 -9 3 -35 -14
-69 -48 -62 -60 -115 -120 -113 -127 1 -3 -10 -6 -23 -6 -14 -1 -33 -9 -43
-18 -10 -9 -23 -16 -29 -16 -7 0 -12 -4 -12 -8 0 -5 15 -8 34 -7 19 0 32 -3
29 -8 -3 -5 -22 -7 -42 -6 -45 4 -77 -18 -109 -76 -13 -22 -15 -29 -5 -15 10
14 30 37 46 52 24 23 32 25 59 18 41 -12 41 -13 17 -46 -11 -16 4 -3 35 29 31
32 53 63 50 69 -4 6 -3 8 3 5 16 -10 154 144 201 226 25 43 24 46 -6 14z
m-222 -277 c0 -5 -5 -10 -11 -10 -5 0 -7 5 -4 10 3 6 8 10 11 10 2 0 4 -4 4
-10z"/>
<path d="M4578 1683 c12 -2 30 -2 40 0 9 3 -1 5 -23 4 -22 0 -30 -2 -17 -4z"/>
<path d="M6500 1640 c-137 -55 -141 -57 -184 -70 l-38 -12 38 -22 c35 -20 40
-20 50 -7 7 9 13 24 15 35 3 13 34 30 104 58 55 22 104 44 110 49 13 13 11 12
-95 -31z m-136 -85 c-4 -8 -8 -15 -10 -15 -2 0 -4 7 -4 15 0 8 4 15 10 15 5 0
7 -7 4 -15z m-24 -1 c0 -8 -19 -13 -24 -6 -3 5 1 9 9 9 8 0 15 -2 15 -3z"/>
<path d="M4540 1662 c0 -5 3 -12 7 -16 14 -14 32 -82 27 -101 -4 -16 -3 -17 5
-5 15 21 14 35 -6 78 -9 20 -15 40 -15 45 1 4 -2 7 -8 7 -5 0 -10 -4 -10 -8z"/>
<path d="M5621 1624 c0 -11 3 -14 6 -6 3 7 2 16 -1 19 -3 4 -6 -2 -5 -13z"/>
<path d="M5909 1621 c-27 -22 -18 -41 21 -41 32 0 43 11 34 33 -9 24 -31 27
-55 8z m31 0 c0 -5 -10 -11 -22 -14 -22 -6 -22 -6 -4 8 23 17 26 18 26 6z"/>
<path d="M4003 1623 c9 -2 23 -2 30 0 6 3 -1 5 -18 5 -16 0 -22 -2 -12 -5z"/>
<path d="M4440 1623 c8 -3 22 -11 30 -17 13 -10 13 -9 1 7 -7 9 -21 17 -30 16
-13 0 -14 -1 -1 -6z"/>
<path d="M4487 1581 c-4 -17 -3 -21 5 -13 5 5 8 16 6 23 -3 8 -7 3 -11 -10z"/>
<path d="M4952 1587 c-8 -10 -6 -13 8 -13 11 0 22 6 24 13 3 7 -1 13 -8 13 -7
0 -18 -6 -24 -13z"/>
<path d="M5185 1570 c-3 -5 1 -10 9 -10 8 0 17 -8 19 -17 4 -15 5 -15 6 -2 1
21 -25 44 -34 29z"/>
<path d="M5740 1559 c0 -5 5 -7 10 -4 6 3 10 8 10 11 0 2 -4 4 -10 4 -5 0 -10
-5 -10 -11z"/>
<path d="M4931 1544 c0 -11 3 -14 6 -6 3 7 2 16 -1 19 -3 4 -6 -2 -5 -13z"/>
<path d="M5460 1551 c0 -17 18 -21 24 -6 3 9 0 15 -9 15 -8 0 -15 -4 -15 -9z"/>
<path d="M2371 1534 c0 -11 3 -14 6 -6 3 7 2 16 -1 19 -3 4 -6 -2 -5 -13z"/>
<path d="M5216 1503 c-6 -14 -5 -15 5 -6 7 7 10 15 7 18 -3 3 -9 -2 -12 -12z"/>
<path d="M2361 1494 c0 -11 3 -14 6 -6 3 7 2 16 -1 19 -3 4 -6 -2 -5 -13z"/>
<path d="M6551 1466 c-24 -24 -41 -49 -37 -54 3 -5 0 -9 -7 -8 -6 0 -39 -28
-72 -64 l-59 -65 59 57 c33 32 64 57 69 56 6 0 30 27 54 61 24 33 42 61 40 61
-2 0 -23 -20 -47 -44z"/>
<path d="M5160 1490 c0 -5 5 -10 11 -10 5 0 7 5 4 10 -3 6 -8 10 -11 10 -2 0
-4 -4 -4 -10z"/>
<path d="M5705 1461 c-3 -5 5 -17 17 -25 20 -15 24 -14 48 7 14 12 27 23 29
24 2 1 -6 1 -17 0 -12 0 -19 -3 -17 -6 9 -9 -17 -30 -31 -24 -19 7 -18 21 4
26 13 4 12 5 -5 6 -12 0 -24 -3 -28 -8z"/>
<path d="M2322 1345 c-18 -66 -25 -125 -15 -125 5 0 33 7 61 15 40 12 56 23
68 46 11 23 12 29 2 23 -7 -4 -37 -23 -66 -42 -30 -18 -56 -32 -58 -29 -3 3 2
33 11 67 9 34 14 67 12 73 -2 7 -9 -6 -15 -28z"/>
<path d="M6449 1318 c-70 -83 -95 -117 -49 -68 50 55 103 120 97 120 -2 0 -24
-24 -48 -52z"/>
<path d="M6229 1323 c-18 -21 -23 -28 -9 -16 14 12 28 22 33 22 4 1 7 4 6 7 0
4 5 11 13 15 7 5 8 9 2 9 -5 0 -26 -17 -45 -37z"/>
<path d="M6334 1278 l-19 -23 23 19 c21 18 27 26 19 26 -2 0 -12 -10 -23 -22z"/>
<path d="M6329 1243 l-34 -38 38 34 c34 33 42 41 34 41 -2 0 -19 -17 -38 -37z"/>
</g>
</svg>
